<svg xmlns="http://www.w3.org/2000/svg" xmlns:xlink="http://www.w3.org/1999/xlink" width="160.114" height="120.197" viewBox="0 0 160.114 120.197">
  <defs>
    <clipPath id="clip-path">
      <rect width="62.727" height="35.311" fill="none"/>
    </clipPath>
    <clipPath id="clip-path-2">
      <rect width="33.031" height="21.714" fill="none"/>
    </clipPath>
    <clipPath id="clip-path-3">
      <rect width="35.621" height="49.233" fill="none"/>
    </clipPath>
    <clipPath id="clip-path-4">
      <rect width="61.23" height="24.236" fill="none"/>
    </clipPath>
    <clipPath id="clip-path-5">
      <rect width="21" height="25" fill="none"/>
    </clipPath>
  </defs>
  <g id="char-other" transform="translate(-992 -637)">
    <rect id="image-5" width="160" height="120" transform="translate(992 637)" fill="#d9d19d"/>
    <g id="char-happy" transform="translate(-212.871 32.164)">
      <rect id="hairback" width="45.57" height="31" transform="translate(1270.721 694)" fill="#555"/>
      <path id="neck" d="M4918.186,1696.812l-1.294,6.8,6.832,3.825,3.911-5.95v-4.675Z" transform="translate(-3628.052 -993.867)" fill="#e5decf" stroke="#707070" stroke-width="1"/>
      <g id="face" transform="translate(1265.983 651.667)">
        <g id="Path_42" data-name="Path 42" transform="translate(4.739 6.333)" fill="#e5decf">
          <path d="M 25.37332153320313 47.5 L 18.22785186767578 47.5 C 13.4913911819458 47.5 9.038741111755371 45.67889022827148 5.690141201019287 42.37215042114258 C 2.343230962753296 39.06708145141602 0.5000010132789612 34.6732292175293 0.5000010132789612 30 L 0.5000010132789612 18 C 0.5000010132789612 13.32676982879639 2.343230962753296 8.932920455932617 5.690141201019287 5.62785005569458 C 9.038741111755371 2.321099996566772 13.49138069152832 0.5 18.22785186767578 0.5 L 27.34177017211914 0.5 C 32.07823944091797 0.5 36.53087997436523 2.321099996566772 39.87948226928711 5.62785005569458 C 43.22639083862305 8.932920455932617 45.06962203979492 13.32676982879639 45.06962203979492 18 L 45.06962203979492 30 C 45.06962203979492 32.3226203918457 44.50281143188477 34.60300827026367 43.38492202758789 36.77782821655273 C 42.32514190673828 38.839599609375 40.82316970825195 40.71390914916992 38.92071151733398 42.34870147705078 C 35.1109619140625 45.62242126464844 30.17313194274902 47.5 25.37332153320313 47.5 Z" stroke="none"/>
          <path d="M 18.22785186767578 1 C 13.62375068664551 1 9.295871734619141 2.769878387451172 6.041461944580078 5.983619689941406 C 2.790420532226563 9.194019317626953 1 13.46152114868164 1 18 L 1 30 C 1 34.53847885131836 2.790420532226563 38.80598068237305 6.041461944580078 42.01638031005859 C 9.295871734619141 45.23012161254883 13.62375068664551 47 18.22785186767578 47 L 25.37332153320313 47 C 30.05536079406738 47 34.87442016601563 45.16643905639648 38.59485244750977 41.9694709777832 C 40.44810104370117 40.37696075439453 41.91010284423828 38.55334091186523 42.94023132324219 36.54924774169922 C 44.02141189575195 34.44583129882813 44.56962203979492 32.24234771728516 44.56962203979492 30 L 44.56962203979492 18 C 44.56962203979492 13.46152114868164 42.77919006347656 9.194019317626953 39.52816009521484 5.983619689941406 C 36.27374267578125 2.769878387451172 31.94587135314941 1 27.34177017211914 1 L 18.22785186767578 1 M 18.22785186767578 0 L 27.34177017211914 0 C 37.40872955322266 0 45.56962203979492 8.058879852294922 45.56962203979492 18 L 45.56962203979492 30 C 45.56962203979492 39.94112014770508 35.44028091430664 48 25.37332153320313 48 L 18.22785186767578 48 C 8.160881042480469 48 0 39.94112014770508 0 30 L 0 18 C 0 8.058879852294922 8.160881042480469 0 18.22785186767578 0 Z" stroke="none" fill="#707070"/>
        </g>
        <path id="Subtraction_14" data-name="Subtraction 14" d="M13.739,72.865H0V72.81c.03-1.732.328-17.436,1.3-35.179A86.68,86.68,0,0,1,3.042,23.8a41.34,41.34,0,0,1,4.4-11.935,23.221,23.221,0,0,1,8.17-8.456A26.377,26.377,0,0,1,28.663.007C28.881,0,29.1,0,29.318,0,36,0,41.54,2.243,45.8,6.667c3.407,3.54,5.913,8.372,7.45,14.362a56,56,0,0,1,1.548,16.6c-.844,16.244-.853,35.044-.853,35.232H45.378l1.985-48.03H34.884L33.7,21.793l-1.183,3.042H29.352l-1.563-6.611-1.327,6.611H13.806l0,.008a159.377,159.377,0,0,1,0,21.188c-.615,9.92-.252,22.07-.066,26.833Z" transform="translate(0)" fill="#555" stroke="#707070" stroke-width="1"/>
        <path id="Path_41" data-name="Path 41" d="M897.007,745.841c-1.38,1.331,1.836,3.327,4.288,3.845s5.518-1.775,5.518-1.775,3.4-2.07,0-3.549S898.386,744.51,897.007,745.841Z" transform="translate(-873.763 -700.517)" fill="#b4a8a8" stroke="#707070" stroke-width="1"/>
      </g>
      <path id="top" d="M4916.984,1698.92s-10.933-2.174-12.556,1.431c-.826,1.835-2-.349-1.871,1.858.043.775,8.914,3.59,9.6,5.823.478,1.56-1.66,7.4-1.66,7.4h25.565a36.717,36.717,0,0,1,0-7.4c.089-1.063,6.723-4.933,7.029-6.835.3-1.827-.27-.583-.736-1.607-2.083-4.575-14.626-.67-14.626-.67a7.352,7.352,0,0,1-4.765,2.277C4920.276,1701.2,4916.984,1698.92,4916.984,1698.92Z" transform="translate(-3628.145 -991)" fill="#f3c6c6" stroke="#707070" stroke-width="1"/>
      <path id="eye" d="M8845.957,727.126a5.417,5.417,0,0,1,3.258-1.842,10.047,10.047,0,0,1,4.439,1.075" transform="translate(-7562.114 -41)" fill="none" stroke="#707070" stroke-width="1"/>
      <path id="eye-2" data-name="eye" d="M8845.957,727.126a5.417,5.417,0,0,1,3.258-1.842,10.047,10.047,0,0,1,4.439,1.075" transform="translate(-7544.899 -41)" fill="none" stroke="#707070" stroke-width="1"/>
      <path id="hand" d="M4915.393,1717c-3.757-2.817.683-6.19.683-6.19s3.505-1.138,5.124,0,1.349,3.006,1.349,4.554A1.5,1.5,0,0,1,4921.2,1717Z" transform="translate(-3600.837 -1006)" fill="#e5decf" stroke="#707070" stroke-width="1"/>
      <path id="hand-2" data-name="hand" d="M4915.393,1717c-3.757-2.817.683-6.19.683-6.19s3.505-1.138,5.124,0,1.349,3.006,1.349,4.554A1.5,1.5,0,0,1,4921.2,1717Z" transform="matrix(0.951, -0.309, 0.309, 0.951, -3933.669, 598.687)" fill="#e5decf" stroke="#707070" stroke-width="1"/>
    </g>
    <g id="pallette" transform="translate(1054.243 648.582)" clip-path="url(#clip-path)">
      <path id="Subtraction_18" data-name="Subtraction 18" d="M40.55,34.311h0a31.553,31.553,0,0,1-13.66-2.936c-.826-.431-1.247-.9-1.286-1.442-.084-1.146,1.639-2.394,3.158-3.495,1.374-.995,2.672-1.935,2.469-2.654-.185-.658-1.564-1.067-4.341-1.289-.835-.067-1.665-.1-2.467-.1A27.84,27.84,0,0,0,13.53,24.649c-.441.176-.869.352-1.283.523l-.04.016C9.97,26.109,8.039,26.9,5.988,26.9a7.747,7.747,0,0,1-1.82-.215c-2.132-.509-3.6-2.3-4.04-4.916C-.65,17.094,2.061,10.164,9.873,5.228,16.71.907,25.162,0,31.047,0a52.03,52.03,0,0,1,8.04.579c1.541.526,3.193,1.043,4.791,1.543l.005,0c8.226,2.575,16.732,5.238,17.608,11a17.188,17.188,0,0,1-1.355,10.006,19.606,19.606,0,0,1-7.561,8.248C48.734,33.8,43.916,34.311,40.55,34.311Zm-6.4-20.774a24.489,24.489,0,0,0-5.284.571c-.034.014-3.49,1.438-3.783,2.558a.534.534,0,0,0,.1.491c.828,1.041,3.529,1.639,7.408,1.639,3.445,0,4.634-.483,6.15-1.639.811-.619,1.625-1.337,1.512-1.972-.077-.434-.572-.786-1.512-1.076A16.1,16.1,0,0,0,34.15,13.536Z" transform="translate(0.514 0.5)" fill="#d5d5d5" stroke="#707070" stroke-width="1"/>
      <path id="Path_89" data-name="Path 89" d="M1009.421,733.144c-1.507.822-3.487,2.055-2.192,3.288a8.385,8.385,0,0,0,7.371,1.644c2.945-.822,4.747-3.7,4.411-4.932s-5.754,0-5.754,0S1010.928,732.322,1009.421,733.144Z" transform="translate(-1001.243 -716.811)" fill="#6a6d6a" stroke="#707070" stroke-linejoin="round" stroke-width="1"/>
      <path id="Path_90" data-name="Path 90" d="M6.879.507c-2.8.25-4.275-.415-5.7,1s-1.712,3.9,0,4.658S8.029,4.52,8.029,4.52s3.268,1,4.357,0a2.639,2.639,0,0,0,0-4.013C11.009-.5,9.681.257,6.879.507Z" transform="matrix(0.883, 0.469, -0.469, 0.883, 46.431, 11.442)" fill="#a1adff" stroke="#707070" stroke-width="1"/>
      <path id="Path_91" data-name="Path 91" d="M1057.042,734.337c-2.8.25-4.275-.415-5.7,1s-1.712,3.9,0,4.658,4.048-1.233,6.85-1.644,5.734-3.01,4.357-4.013S1059.844,734.088,1057.042,734.337Z" transform="translate(-1013.23 -727.782)" fill="#ff9e9e" stroke="#707070" stroke-width="1"/>
      <path id="Path_92" data-name="Path 92" d="M1009.422,737.794c-1.507-.822-3.487-2.055-2.192-3.288a8.385,8.385,0,0,1,7.371-1.644c2.945.822,4.747,3.7,4.411,4.932s-5.754,0-5.754,0S1010.928,738.616,1009.422,737.794Z" transform="translate(-971.909 -708.582)" fill="#b196fc" stroke="#707070" stroke-linejoin="round" stroke-width="1"/>
      <path id="Path_93" data-name="Path 93" d="M1009.421,733.144c-1.507.822-3.487,2.055-2.192,3.288a8.385,8.385,0,0,0,7.371,1.644c2.945-.822,4.747-3.7,4.411-4.932s-5.754,0-5.754,0S1010.928,732.322,1009.421,733.144Z" transform="translate(-992.197 -726.558)" fill="#ffee53" stroke="#707070" stroke-linejoin="round" stroke-width="1"/>
    </g>
    <g id="brush" transform="translate(1024.012 689.076)" clip-path="url(#clip-path-2)">
      <path id="Path_85" data-name="Path 85" d="M1034.7,727.94s-4.026-1.792-6.766.211-4.194,7.8-4.194,7.8a21.149,21.149,0,0,1,5.038-1.265c2.74-.316,4.284.58,5.922,0s2.529-4,2.529-4Z" transform="translate(-1023.012 -715.076)" fill="#7d775f" stroke="#707070" stroke-linejoin="round" stroke-width="1"/>
      <path id="Path_86" data-name="Path 86" d="M1037.227,730.047c16.65-8.641,18.315-9.274,18.315-9.274v-4.848L1034.7,727.518Z" transform="translate(-1023.012 -715.076)" fill="#ffd7af" stroke="#707070" stroke-linejoin="round" stroke-width="1"/>
    </g>
    <g id="hammer" transform="translate(1112.039 681.521) rotate(19)" clip-path="url(#clip-path-3)">
      <g id="Rectangle_60" data-name="Rectangle 60" transform="translate(15.16 14.233)" fill="#ffdcae" stroke="#707070" stroke-width="1">
        <rect width="7" height="35" stroke="none"/>
        <rect x="0.5" y="0.5" width="6" height="34" fill="none"/>
      </g>
      <path id="Path_94" data-name="Path 94" d="M1111.712,716.732a5.78,5.78,0,0,0-5.212-3.918c-4.235-.356-2.606,3.918-2.606,10.686,0,0,1.955,2.226,3.909,1.781s1.3-3.918,3.909-3.918,6.516,2.137,6.516,2.137v8.549h7.134V723.5a6.343,6.343,0,0,1,4.561-4.63c3.836-.98,7.167,2.493,7.167,2.493h1.3s-8.8-9.261-16.256-8.549S1111.712,716.732,1111.712,716.732Z" transform="translate(-1103.118 -712.274)" fill="#ababab" stroke="#707070" stroke-linejoin="bevel" stroke-width="1"/>
    </g>
    <path id="Path_95" data-name="Path 95" d="M1116.869,723a7.081,7.081,0,0,1-2.594-5.373c0-3.451.689-6.12,2.594-8.431s5.026-.811,5.026-.811l-2.756,7.944s4.831,2.432,5.333,1.946a44.1,44.1,0,0,0,2.449-5.188s3.976,1.621,3.729,4.539-2.529,5.35-4.718,7.134a2.991,2.991,0,0,1-4.037,0s-6,22.049-7.62,24.481a6.085,6.085,0,0,1-7.3,2.108c-2.472-1.013-3.121-3-2.594-6.161S1109.086,738.7,1116.869,723Z" transform="translate(-78.292 -43.604) rotate(2)" fill="#b8b8b8" stroke="#707070" stroke-width="1"/>
    <g id="switch" transform="translate(996.609 685.051) rotate(-45)" clip-path="url(#clip-path-4)">
      <g id="Rectangle_54" data-name="Rectangle 54" transform="translate(7)" fill="#878787" stroke="#707070" stroke-width="1">
        <rect width="47.229" height="24.236" stroke="none"/>
        <rect x="0.5" y="0.5" width="46.229" height="23.236" fill="none"/>
      </g>
      <g id="Union_7" data-name="Union 7" transform="translate(0 0)" fill="#dbc3c3">
        <path d="M 7.500100135803223 23.7361011505127 L 4.000500202178955 23.7361011505127 C 2.070810317993164 23.7361011505127 0.5009002089500427 22.16578102111816 0.5009002089500427 20.23559951782227 L 0.5009002089500427 3.999600410461426 C 0.5009002089500427 2.069420337677002 2.070810317993164 0.4991004467010498 4.000500202178955 0.4991004467010498 L 7.500100135803223 0.4991004467010498 L 7.500100135803223 23.7361011505127 Z" stroke="none"/>
        <path d="M 7.000100135803223 23.2361011505127 L 7.000100135803223 0.9991004467010498 L 4.000500202178955 0.9991004467010498 C 2.346510171890259 0.9991004467010498 1.000900149345398 2.345120429992676 1.000900149345398 3.999600410461426 L 1.000900149345398 20.23559951782227 C 1.000900149345398 21.89007949829102 2.346510171890259 23.2361011505127 4.000500202178955 23.2361011505127 L 7.000100135803223 23.2361011505127 M 8.000100135803223 24.2361011505127 L 4.000500202178955 24.2361011505127 C 1.791000247001648 24.2361011505127 0.0009002021979540586 22.44510078430176 0.0009002021979540586 20.23559951782227 L 0.0009002021979540586 3.999600410461426 C 0.0009002021979540586 1.790100455284119 1.791000247001648 -0.0008995590033009648 4.000500202178955 -0.0008995590033009648 L 8.000100135803223 -0.0008995590033009648 L 8.000100135803223 24.2361011505127 Z" stroke="none" fill="#707070"/>
      </g>
      <g id="Union_8" data-name="Union 8" transform="translate(61.23 24.236) rotate(180)" fill="#c2dfff">
        <path d="M 7.500100135803223 23.7361011505127 L 4.000500202178955 23.7361011505127 C 2.070810317993164 23.7361011505127 0.5009002089500427 22.16578102111816 0.5009002089500427 20.23559951782227 L 0.5009002089500427 3.999600410461426 C 0.5009002089500427 2.069420337677002 2.070810317993164 0.4991004467010498 4.000500202178955 0.4991004467010498 L 7.500100135803223 0.4991004467010498 L 7.500100135803223 23.7361011505127 Z" stroke="none"/>
        <path d="M 7.000100135803223 23.2361011505127 L 7.000100135803223 0.9991004467010498 L 4.000500202178955 0.9991004467010498 C 2.346510171890259 0.9991004467010498 1.000900149345398 2.345120429992676 1.000900149345398 3.999600410461426 L 1.000900149345398 20.23559951782227 C 1.000900149345398 21.89007949829102 2.346510171890259 23.2361011505127 4.000500202178955 23.2361011505127 L 7.000100135803223 23.2361011505127 M 8.000100135803223 24.2361011505127 L 4.000500202178955 24.2361011505127 C 1.791000247001648 24.2361011505127 0.0009002021979540586 22.44510078430176 0.0009002021979540586 20.23559951782227 L 0.0009002021979540586 3.999600410461426 C 0.0009002021979540586 1.790100455284119 1.791000247001648 -0.0008995590033009648 4.000500202178955 -0.0008995590033009648 L 8.000100135803223 -0.0008995590033009648 L 8.000100135803223 24.2361011505127 Z" stroke="none" fill="#707070"/>
      </g>
    </g>
    <g id="book" transform="matrix(0.839, -0.545, 0.545, 0.839, 1120.886, 651.735)" clip-path="url(#clip-path-5)">
      <g id="Rectangle_61" data-name="Rectangle 61" transform="translate(2)" fill="#c5d3f8" stroke="#707070" stroke-linejoin="bevel" stroke-width="1">
        <rect width="19" height="25" stroke="none"/>
        <rect x="0.5" y="0.5" width="18" height="24" fill="none"/>
      </g>
      <g id="Rectangle_62" data-name="Rectangle 62" fill="#aea8a8" stroke="#707070" stroke-linejoin="bevel" stroke-width="1">
        <rect width="3" height="25" stroke="none"/>
        <rect x="0.5" y="0.5" width="2" height="24" fill="none"/>
      </g>
    </g>
    <g id="book-2" data-name="book" transform="matrix(0.996, -0.087, 0.087, 0.996, 1116.95, 649.963)" clip-path="url(#clip-path-5)">
      <g id="Rectangle_61-2" data-name="Rectangle 61" transform="translate(2)" fill="#bbbdc4" stroke="#707070" stroke-linejoin="bevel" stroke-width="1">
        <rect width="19" height="25" stroke="none"/>
        <rect x="0.5" y="0.5" width="18" height="24" fill="none"/>
      </g>
      <g id="Rectangle_62-2" data-name="Rectangle 62" fill="#aea8a8" stroke="#707070" stroke-linejoin="bevel" stroke-width="1">
        <rect width="3" height="25" stroke="none"/>
        <rect x="0.5" y="0.5" width="2" height="24" fill="none"/>
      </g>
    </g>
    <g id="book-3" data-name="book" transform="matrix(0.966, 0.259, -0.259, 0.966, 1032.593, 720.708)" clip-path="url(#clip-path-5)">
      <g id="Rectangle_61-3" data-name="Rectangle 61" transform="translate(2)" fill="#e0d3f1" stroke="#707070" stroke-linejoin="bevel" stroke-width="1">
        <rect width="19" height="25" stroke="none"/>
        <rect x="0.5" y="0.5" width="18" height="24" fill="none"/>
      </g>
      <g id="Rectangle_62-3" data-name="Rectangle 62" fill="#aea8a8" stroke="#707070" stroke-linejoin="bevel" stroke-width="1">
        <rect width="3" height="25" stroke="none"/>
        <rect x="0.5" y="0.5" width="2" height="24" fill="none"/>
      </g>
    </g>
    <g id="cake" transform="translate(-451.438 733.675) rotate(-30)">
      <path id="Path_96" data-name="Path 96" d="M5336.945,787.622l15.386-10.117s5.938.738,8.831,2.74a6.466,6.466,0,0,1,2.74,5.269v14.543l-26.957,2.529Z" transform="translate(-3980)" fill="#e9ebd3" stroke="#707070" stroke-linejoin="bevel" stroke-width="1"/>
      <line id="Line_11" data-name="Line 11" y1="2" x2="27" transform="translate(1356.5 786.5)" fill="none" stroke="#707070" stroke-width="1"/>
      <path id="Path_97" data-name="Path 97" d="M1356.945,794.062l26.726-2.74v2.74l-26.726,2.951Z" fill="#f3c2c2" stroke="#707070" stroke-width="1"/>
      <path id="Path_98" data-name="Path 98" d="M1370.308,782.47s3.178,2.424,5.354,2.108,3.351-3.372,3.351-3.372,1.523-5.232,0-6.976-6.091,0-6.091,0-3.372,2.387-4.026,4.447S1370.308,782.47,1370.308,782.47Z" fill="#e88d8d" stroke="#707070" stroke-linejoin="bevel" stroke-width="1"/>
    </g>
  </g>
</svg>
