<svg xmlns="http://www.w3.org/2000/svg" xmlns:xlink="http://www.w3.org/1999/xlink" width="160" height="120" viewBox="0 0 160 120">
  <defs>
    <clipPath id="clip-path">
      <rect width="19.238" height="14.936" fill="none"/>
    </clipPath>
  </defs>
  <g id="char-eating" transform="translate(-1315 -739)">
    <rect id="image-5" width="160" height="120" transform="translate(1315 739)" fill="#f9d9dd"/>
    <g id="char-eating-2" data-name="char-eating" transform="translate(102 101)">
      <rect id="hairback" width="45.57" height="31" transform="translate(1270.721 694)" fill="#555"/>
      <path id="neck" d="M4918.186,1696.812l-1.294,6.8,6.832,3.825,3.911-5.95v-4.675Z" transform="translate(-3628.052 -993.867)" fill="#e5decf" stroke="#707070" stroke-width="1"/>
      <g id="face" transform="translate(1265.983 651.667)">
        <g id="Path_42" data-name="Path 42" transform="translate(4.739 6.333)" fill="#e5decf">
          <path d="M 25.37332153320313 47.5 L 18.22785186767578 47.5 C 13.4913911819458 47.5 9.038741111755371 45.67889022827148 5.690141201019287 42.37215042114258 C 2.343230962753296 39.06708145141602 0.5000010132789612 34.6732292175293 0.5000010132789612 30 L 0.5000010132789612 18 C 0.5000010132789612 13.32676982879639 2.343230962753296 8.932920455932617 5.690141201019287 5.62785005569458 C 9.038741111755371 2.321099996566772 13.49138069152832 0.5 18.22785186767578 0.5 L 27.34177017211914 0.5 C 32.07823944091797 0.5 36.53087997436523 2.321099996566772 39.87948226928711 5.62785005569458 C 43.22639083862305 8.932920455932617 45.06962203979492 13.32676982879639 45.06962203979492 18 L 45.06962203979492 30 C 45.06962203979492 32.3226203918457 44.50281143188477 34.60300827026367 43.38492202758789 36.77782821655273 C 42.32514190673828 38.839599609375 40.82316970825195 40.71390914916992 38.92071151733398 42.34870147705078 C 35.1109619140625 45.62242126464844 30.17313194274902 47.5 25.37332153320313 47.5 Z" stroke="none"/>
          <path d="M 18.22785186767578 1 C 13.62375068664551 1 9.295871734619141 2.769878387451172 6.041461944580078 5.983619689941406 C 2.790420532226563 9.194019317626953 1 13.46152114868164 1 18 L 1 30 C 1 34.53847885131836 2.790420532226563 38.80598068237305 6.041461944580078 42.01638031005859 C 9.295871734619141 45.23012161254883 13.62375068664551 47 18.22785186767578 47 L 25.37332153320313 47 C 30.05536079406738 47 34.87442016601563 45.16643905639648 38.59485244750977 41.9694709777832 C 40.44810104370117 40.37696075439453 41.91010284423828 38.55334091186523 42.94023132324219 36.54924774169922 C 44.02141189575195 34.44583129882813 44.56962203979492 32.24234771728516 44.56962203979492 30 L 44.56962203979492 18 C 44.56962203979492 13.46152114868164 42.77919006347656 9.194019317626953 39.52816009521484 5.983619689941406 C 36.27374267578125 2.769878387451172 31.94587135314941 1 27.34177017211914 1 L 18.22785186767578 1 M 18.22785186767578 0 L 27.34177017211914 0 C 37.40872955322266 0 45.56962203979492 8.058879852294922 45.56962203979492 18 L 45.56962203979492 30 C 45.56962203979492 39.94112014770508 35.44028091430664 48 25.37332153320313 48 L 18.22785186767578 48 C 8.160881042480469 48 0 39.94112014770508 0 30 L 0 18 C 0 8.058879852294922 8.160881042480469 0 18.22785186767578 0 Z" stroke="none" fill="#707070"/>
        </g>
        <path id="Subtraction_14" data-name="Subtraction 14" d="M13.739,72.865H0V72.81c.03-1.732.328-17.436,1.3-35.179A86.68,86.68,0,0,1,3.042,23.8a41.34,41.34,0,0,1,4.4-11.935,23.221,23.221,0,0,1,8.17-8.456A26.377,26.377,0,0,1,28.663.007C28.881,0,29.1,0,29.318,0,36,0,41.54,2.243,45.8,6.667c3.407,3.54,5.913,8.372,7.45,14.362a56,56,0,0,1,1.548,16.6c-.844,16.244-.853,35.044-.853,35.232H45.378l1.985-48.03H34.884L33.7,21.793l-1.183,3.042H29.352l-1.563-6.611-1.327,6.611H13.806l0,.008a159.377,159.377,0,0,1,0,21.188c-.615,9.92-.252,22.07-.066,26.833Z" transform="translate(0)" fill="#555" stroke="#707070" stroke-width="1"/>
        <path id="Path_41" data-name="Path 41" d="M896.842,746.4c-.7,1.694.926,4.235,2.161,4.893s2.782-2.258,2.782-2.258,1.712-2.635,0-4.517S897.538,744.71,896.842,746.4Z" transform="translate(-869.987 -701.517)" fill="#b4a8a8" stroke="#707070" stroke-width="1"/>
      </g>
      <path id="top" d="M4916.984,1698.92s-4.867-.316-6.49,3.289-.854,7.378,0,11.131,3.416,3.879,3.416,3.879h22.149a62.3,62.3,0,0,1,0-9.187c.089-1.063,3.49-1.212,3.8-3.114.3-1.827-2.542-2.7-3.008-3.721-2.083-4.575-9.121-2.277-9.121-2.277a7.352,7.352,0,0,1-4.765,2.277C4920.276,1701.2,4916.984,1698.92,4916.984,1698.92Z" transform="translate(-3628.145 -991)" fill="#f3c6c6" stroke="#707070" stroke-width="1"/>
      <path id="eye" d="M8845.957,727.126a5.417,5.417,0,0,1,3.258-1.842,10.047,10.047,0,0,1,4.439,1.075" transform="translate(-7562.114 -41)" fill="none" stroke="#707070" stroke-width="1"/>
      <path id="eye-2" data-name="eye" d="M8845.957,727.126a5.417,5.417,0,0,1,3.258-1.842,10.047,10.047,0,0,1,4.439,1.075" transform="translate(-7544.899 -41)" fill="none" stroke="#707070" stroke-width="1"/>
      <path id="hand" d="M4915.393,1717c-3.757-2.817.683-6.19.683-6.19s3.505-1.138,5.124,0,1.349,3.006,1.349,4.554A1.5,1.5,0,0,1,4921.2,1717Z" transform="translate(-3607.837 -1003)" fill="#e5decf" stroke="#707070" stroke-width="1"/>
      <path id="crease" d="M5268.015,719.453l-.487-2.94Z" transform="translate(-3979.057)" fill="none" stroke="#707070" stroke-width="1"/>
      <path id="spoon" d="M5286.11,711.016l-6.426-3.378h-4.245a3.3,3.3,0,0,1-2.537-1.5,3.4,3.4,0,0,1,0-3.274,2.254,2.254,0,0,1,1.931-1.117s2.78-.513,3.384.585a15.77,15.77,0,0,1,1.077,3.13l7.893,4.429Z" transform="translate(-3978.995)" fill="#7e8f90" stroke="#707070" stroke-linejoin="round" stroke-width="1"/>
      <path id="food_spoon" data-name="food spoon" d="M5272.353,702.69l1.5,2.716,2.984,1,2.093-.413,1.621-1.653V701.1l-2.75-1.3-1.615.945-2.691-.591Z" transform="translate(-3977.983)" fill="#dcdcdc" stroke="#707070" stroke-linejoin="round" stroke-width="1"/>
      <rect id="table" width="160" height="32" transform="translate(1213 726)" fill="#d4d5b8"/>
      <g id="food" transform="translate(1288.438 712.228)" clip-path="url(#clip-path)">
        <path id="food-2" data-name="food" d="M5269.406,717.983l1.554-2.833,4.3-1.358,2.816,1.358,2.811-.768,2.93,1.949.418,1.652-3.714,3.072-8.132-.472Z" transform="translate(-5267.471 -712.228)" fill="#dcdcdc" stroke="#707070" stroke-linejoin="bevel" stroke-width="1"/>
        <path id="bowl" d="M5268.75,719.578s1.1,4.015,2.159,5.078a3.259,3.259,0,0,0,2.505.886v1.122h6.7v-1.476a4.5,4.5,0,0,0,3.109-.886c1.166-1.078,2.207-5.078,2.207-5.078Z" transform="translate(-5267.48 -712.228)" fill="#a1b59b" stroke="#707070" stroke-linecap="round" stroke-linejoin="round" stroke-width="1"/>
        <path id="bowl_rim" data-name="bowl rim" d="M0,.713v1.24a61.607,61.607,0,0,0,9.055.468,62.861,62.861,0,0,0,9.06-1.067L17.744,0S12.312.53,7.876.709,0,.713,0,.713Z" transform="matrix(0.999, 0.035, -0.035, 0.999, 0.61, 5.398)" fill="#fff" stroke="#707070" stroke-linejoin="round" stroke-width="1"/>
        <path id="food_topping" data-name="food topping" d="M5274.864,716.271h0l-1.256-3.543-5.5.945,5.5,3.543" transform="translate(-5267.488 -712.228)" fill="#9d8686" stroke="#707070" stroke-linejoin="round" stroke-width="1"/>
      </g>
      <path id="hand-2" data-name="hand" d="M4915.393,1717c-3.757-2.817.683-6.19.683-6.19s.669-1.138,2.288,0,1.708,1.12,1.708,2.667,2.445.758,1.458,2.984S4915.393,1717,4915.393,1717Z" transform="translate(-3628.09 -991)" fill="#e5decf" stroke="#707070" stroke-width="1"/>
    </g>
  </g>
</svg>
