<svg xmlns="http://www.w3.org/2000/svg" xmlns:xlink="http://www.w3.org/1999/xlink" width="160" height="120" viewBox="0 0 160 120">
  <defs>
    <clipPath id="clip-path">
      <rect width="28.406" height="20.047" fill="none"/>
    </clipPath>
    <clipPath id="clip-path-2">
      <rect width="53.989" height="72.453" fill="none"/>
    </clipPath>
    <clipPath id="clip-path-3">
      <rect width="29.709" height="28.32" fill="none"/>
    </clipPath>
    <clipPath id="clip-path-4">
      <rect width="28.977" height="41.555" fill="none"/>
    </clipPath>
    <clipPath id="clip-path-5">
      <rect width="28.977" height="22.735" fill="none"/>
    </clipPath>
    <clipPath id="clip-path-6">
      <rect width="21.21" height="20.218" fill="none"/>
    </clipPath>
  </defs>
  <g id="char-pruning" transform="translate(-991 -643)">
    <path id="image-4" d="M0,0H160V120H0Z" transform="translate(991 643)" fill="#e1c2b0"/>
    <g id="gardener" transform="translate(1030 664.242)">
      <rect id="hairback" width="45" height="31" transform="translate(51 51.758)" fill="#555"/>
      <path id="neck" d="M4926.221,1696.812l1.278,6.8-6.746,3.825-3.862-5.95v-4.675Z" transform="translate(-4849.391 -1636.109)" fill="#e5decf" stroke="#707070" stroke-width="1"/>
      <g id="Path_42" data-name="Path 42" transform="translate(51 15.758)" fill="#e5decf">
        <path d="M 23.86816024780273 47.5 L 19.94384956359863 47.5 C 15.20664024353027 47.5 10.33285999298096 45.62316131591797 6.572219848632813 42.35073089599609 C 4.693749904632568 40.71612930297852 3.210649967193604 38.84189987182617 2.164109945297241 36.78010177612305 C 1.059890031814575 34.60467147827148 0.5 32.32352066040039 0.5 30 L 0.5 18 C 0.5 13.32557964324951 2.320319890975952 8.930939674377441 5.625629901885986 5.625629901885986 C 8.930950164794922 2.320319890975952 13.32557964324951 0.5 18 0.5 L 27 0.5 C 31.67441940307617 0.5 36.06904983520508 2.320319890975952 39.37437057495117 5.625629901885986 C 42.67967987060547 8.930939674377441 44.5 13.32557964324951 44.5 18 L 44.5 27.75793075561523 C 44.5 30.08065032958984 43.87778091430664 32.47943115234375 42.65063095092773 34.88766098022461 C 41.49985885620117 37.14598083496094 39.82897186279297 39.34378051757813 37.81859970092773 41.24346923828125 C 35.82339096069336 43.12882995605469 33.51939010620117 44.69773101806641 31.15567970275879 45.78057861328125 C 28.70026016235352 46.90542984008789 26.18026924133301 47.5 23.86816024780273 47.5 Z" stroke="none"/>
        <path d="M 18 1 C 13.45914077758789 1 9.190059661865234 2.768310546875 5.979190826416016 5.979190826416016 C 2.768310546875 9.190059661865234 1 13.45914077758789 1 18 L 1 30 C 1 32.2441291809082 1.541671752929688 34.44915008544922 2.609958648681641 36.55379104614258 C 3.627231597900391 38.55792236328125 5.070758819580078 40.38138961791992 6.900440216064453 41.97354125976563 C 10.57138824462891 45.16793060302734 15.32552909851074 47 19.94384956359863 47 L 23.86816024780273 47 C 28.33305931091309 47 33.4197998046875 44.7121696472168 37.47518920898438 40.88005828857422 C 39.44445037841797 39.01921081542969 41.08003997802734 36.86856842041016 42.20513153076172 34.66065216064453 C 43.3961181640625 32.32339859008789 44 30.00098991394043 44 27.75793075561523 L 44 18 C 44 13.45914077758789 42.231689453125 9.190059661865234 39.02080917358398 5.979190826416016 C 35.80994033813477 2.768310546875 31.54085922241211 1 27 1 L 18 1 M 18 0 L 27 0 C 36.94112014770508 0 45 8.058879852294922 45 18 L 45 27.75793075561523 C 45 37.69905853271484 33.80928802490234 48 23.86816024780273 48 L 19.94384956359863 48 C 10.00271987915039 48 0 39.94112014770508 0 30 L 0 18 C 0 8.058879852294922 8.058879852294922 0 18 0 Z" stroke="none" fill="#707070"/>
      </g>
      <path id="Subtraction_14" data-name="Subtraction 14" d="M28.954,72.865h0c-.215,0-.433,0-.649-.007a25.8,25.8,0,0,1-12.889-3.4A23.1,23.1,0,0,1,7.348,61,41.66,41.66,0,0,1,3,49.068,87.729,87.729,0,0,1,1.284,35.234C.267,16.449,0,.163,0,0H13.566c-.182,4.755-.543,16.885.066,26.833.752,12.245.708,21.109.707,21.2H26.131l1.31,6.61,1.544-6.61h3.126l1.168,3.04,1.168-3.04H46.771L44.811,0h8.455c0,.171.009,18.97.842,35.233a56.689,56.689,0,0,1-1.528,16.6c-1.519,5.99-3.994,10.822-7.357,14.362A21.537,21.537,0,0,1,28.954,72.865Z" transform="translate(100.68 82.291) rotate(180)" fill="#555" stroke="#707070" stroke-width="1"/>
      <path id="top" d="M4932.151,1698.92a7.943,7.943,0,0,1,5.506,4.28c1.6,3.6,4.322,8.844,3.479,12.6s-5.949,1.423-5.949,1.423l-18.495-1.423s.168-5.8,0-7.857c-.088-1.063-6.825-1.119-7.127-3.021-.292-1.827,2.19-2.7,2.65-3.721,3.979-2.237,9.328-2.277,9.328-2.277a7.232,7.232,0,0,0,4.705,2.277C4928.9,1701.2,4932.151,1698.92,4932.151,1698.92Z" transform="translate(-4854.043 -1633.242)" fill="#849189" stroke="#707070" stroke-width="1"/>
      <path id="brow" d="M8845.957,727.126a7.021,7.021,0,0,1,.939-.883,4.45,4.45,0,0,1,2.277-.96,6.108,6.108,0,0,1,1.794.15,11.245,11.245,0,0,1,2.59.925" transform="matrix(0.966, 0.259, -0.259, 0.966, -8282.014, -2949.983)" fill="none" stroke="#707070" stroke-width="1"/>
      <path id="hand" d="M4920.966,1717c3.71-2.817-.675-6.19-.675-6.19s-3.461-1.138-5.06,0-1.332,3.006-1.332,4.554a1.5,1.5,0,0,0,1.332,1.637Z" transform="translate(-4864.34 -1645.242)" fill="#e5decf" stroke="#707070" stroke-width="1"/>
      <g id="eye" transform="translate(76 41.758)" fill="#707070" stroke="#707070" stroke-width="1">
        <ellipse cx="2" cy="2.5" rx="2" ry="2.5" stroke="none"/>
        <ellipse cx="2" cy="2.5" rx="1.5" ry="2" fill="none"/>
      </g>
      <path id="mouth" d="M-.167.68A3.8,3.8,0,0,1,1.872.572c.859.293,1.567.6,1.567.6l.393.134s.62.107.769.122A8.89,8.89,0,0,1,8.044,2.594a9.034,9.034,0,0,1-4.212-.086A25.9,25.9,0,0,1-.167.68Z" transform="translate(66.984 56.786) rotate(-17)" fill="#b4a8a8" stroke="#707070" stroke-linejoin="round" stroke-width="1"/>
      <path id="brow-2" data-name="brow" d="M0,0A7.016,7.016,0,0,0,.938.883a4.451,4.451,0,0,0,2.277.96,6.112,6.112,0,0,0,1.795-.149A11.242,11.242,0,0,0,7.6.768" transform="matrix(-0.966, 0.259, -0.259, -0.966, 67.155, 41.869)" fill="none" stroke="#707070" stroke-width="1"/>
      <g id="eye-2" data-name="eye" transform="translate(61 41.758)" fill="#707070" stroke="#707070" stroke-width="1">
        <ellipse cx="2" cy="2.5" rx="2" ry="2.5" stroke="none"/>
        <ellipse cx="2" cy="2.5" rx="1.5" ry="2" fill="none"/>
      </g>
      <path id="Path_79" data-name="Path 79" d="M80.871,81.93c.5-.744,0-6.494,0-6.494" fill="none" stroke="#707070" stroke-width="1"/>
    </g>
    <rect id="Rectangle_59" data-name="Rectangle 59" width="160" height="17" transform="translate(991 746)" fill="#cee1b1"/>
    <g id="shears" transform="translate(1060.921 719.483)" clip-path="url(#clip-path)">
      <path id="Path_74" data-name="Path 74" d="M1055.445,724.465a16.129,16.129,0,0,0-6.323-.211c-3,.632-3.9.422-5.69,2.74s-1.476,6.534-1.476,6.534Z" transform="matrix(-0.848, -0.53, 0.53, -0.848, 511.917, 1184.047)" fill="#cbcbcb" stroke="#707070" stroke-linejoin="bevel" stroke-width="1"/>
      <path id="Path_73" data-name="Path 73" d="M1041.935,724.465a16.129,16.129,0,0,1,6.323-.211c3,.632,3.9.422,5.69,2.74s1.476,6.534,1.476,6.534Z" transform="translate(-1037.921 -723.483)" fill="#cbcbcb" stroke="#707070" stroke-linejoin="bevel" stroke-width="1"/>
      <path id="Subtraction_16" data-name="Subtraction 16" d="M-4505.7-96.544a.7.7,0,0,1-.192-.026c-.846-.242-6.852-4.434-7.107-4.612l3.478-1.375A9.088,9.088,0,0,1-4507-103a2.512,2.512,0,0,1,1.612.443c1.2.979,1.617,4.579,1.621,4.615C-4503.885-97.8-4504.894-96.544-4505.7-96.544Zm-.356-4.562-3.173.454s.042.026.1.07c2.078,1.412,2.77,1.939,2.984,2.132.021.085.048.126.083.126.006,0,.014,0,.016-.007s-.027-.054-.1-.119a15.163,15.163,0,0,1,.083-2.65Z" transform="matrix(0.891, -0.454, 0.454, 0.891, 4084.435, -1948.349)" fill="#ffa2a2" stroke="#707070" stroke-linejoin="round" stroke-width="1"/>
      <path id="Subtraction_17" data-name="Subtraction 17" d="M7.3,0a.7.7,0,0,0-.192.026C6.261.268.255,4.46,0,4.639L3.478,6.013a9.088,9.088,0,0,0,2.517.443,2.512,2.512,0,0,0,1.612-.443C8.8,5.034,9.223,1.434,9.227,1.4,9.113,1.252,8.1,0,7.3,0ZM6.943,4.562,3.77,4.108s.042-.026.1-.07C5.953,2.626,6.645,2.1,6.859,1.906c.021-.085.048-.126.083-.126.006,0,.014,0,.016.007s-.027.054-.1.119a15.163,15.163,0,0,0,.083,2.65Z" transform="translate(21.782 9.544) rotate(83)" fill="#ffa2a2" stroke="#707070" stroke-linejoin="round" stroke-width="1"/>
    </g>
    <g id="plant" transform="translate(1025.159 689.878)" clip-path="url(#clip-path-2)">
      <g id="plant_pot" data-name="plant pot" transform="translate(11.055 44.133)" clip-path="url(#clip-path-3)">
        <path id="Path_62" data-name="Path 62" d="M1017.714,711.512h28.709v8.335h-28.709Z" transform="translate(-1017.214 -711.012)" fill="#ae957a" stroke="#707070" stroke-width="1"/>
        <path id="Path_63" data-name="Path 63" d="M1020.6,719.847l5.911,18.985h11.378l6.218-18.985Z" transform="translate(-1017.214 -711.012)" fill="#ae957a" stroke="#707070" stroke-width="1"/>
      </g>
      <path id="Path_64" data-name="Path 64" d="M1026.629,696.494c-1.617-.247-4.733-2.582-8.494-1.069s-4.912,3.356-6.549,7.124,0,7.946,0,7.946a19.719,19.719,0,0,1,5.467-4.864c3.393-1.986,5.983-.982,8.106-3.082S1026.629,696.494,1026.629,696.494Z" transform="translate(-1006.159 -659.878)" fill="#c3d5c6" stroke="#707070" stroke-linejoin="round" stroke-width="1"/>
      <path id="Path_65" data-name="Path 65" d="M1033.232,698.713a38.633,38.633,0,0,1,2.712-3.433,5.361,5.361,0,0,1,3.042-2.047c3.35-.617,4.083-.548,7.645,3.014s5.08,11.641,5.08,11.641a10.865,10.865,0,0,0-6.423-4.243c-4.322-.959-8.248,1.644-9.343,0S1033.232,698.713,1033.232,698.713Z" transform="translate(-1005.159 -660.878)" fill="#d5d3c3" stroke="#707070" stroke-linejoin="round" stroke-width="1"/>
      <path id="Path_66" data-name="Path 66" d="M1025.012,685.287s-6.575-4.11-10.686.274-5.48,13.7-5.48,13.7,3.877-5.548,7.918-7.4c1.867-.854,4.337.334,6.4-1.31s2.375-4.9,2.375-4.9l2.262-.186Z" transform="matrix(0.574, 0.819, -0.819, 0.574, -5.153, -1200.071)" fill="#81af86" stroke="#707070" stroke-linejoin="round" stroke-width="1"/>
      <path id="Path_67" data-name="Path 67" d="M1028.821,699.261a6.408,6.408,0,0,0-3.26,5.754c0,4.178,3.26,10.96,3.26,10.96s5.158-2.671,6.877-6.85-2.183-9.864-2.183-9.864Z" transform="translate(-1005.159 -664.878)" fill="#81af86" stroke="#707070" stroke-linejoin="round" stroke-width="1"/>
      <path id="Path_68" data-name="Path 68" d="M1040.736,691.675s.1-4.583,2.382-7.233,3.5-2.931,6.735-3.367,6.243,1.6,7.365,2.476c.834.649,5.625,7.127,5.625,7.127s-4.864-3.386-6.859-4.134-3.636,1.266-3.636,1.266a11.682,11.682,0,0,1-4.614,2.868c-2.9.967-6.1,1.734-6.1,1.734L1038,696.777Z" transform="matrix(0.995, -0.105, 0.105, 0.995, -1076.414, -550.305)" fill="#90a48a" stroke="#707070" stroke-linejoin="round" stroke-width="1"/>
      <path id="Path_72" data-name="Path 72" d="M1029.557,699.85l-1.248-9.287s-5.286-4.6-5.468-4.989a11.279,11.279,0,0,1-3.357-7.2c-.429-4.8,1.641-12,1.641-12s2.4,3.485,4.509,6.245,2.581,1.871,3.924,4.8a57.66,57.66,0,0,1,2.6,8.154l-3.08,5.468Z" transform="translate(-1005.159 -665.878)" fill="#90a48a" stroke="#707070" stroke-linejoin="round" stroke-width="1"/>
      <path id="Path_69" data-name="Path 69" d="M1030.148,684.691c-.842-1.372-3.367-4.739-3.367-4.739s-.842-3.336,0-5.612,1.5-1.746,2.37-3.492a39.479,39.479,0,0,0,1.858-6.111l3.006,6.111a22.768,22.768,0,0,1,1.746,7.233c0,3.149-.343,3.523-1.746,5.363a6.271,6.271,0,0,1-3.006,2.269l-.86,9.114Z" transform="translate(-1004.159 -660.878)" fill="#fff" stroke="#707070" stroke-linejoin="round" stroke-width="1"/>
      <path id="Path_70" data-name="Path 70" d="M1031.848,679.159c-1.2-.217-2.461-.454-2.461-.454l.761,1.621-.761,1.359.761.636-.761,2.37h1.384v2.245l1.858-2.993s1.26,1.5,1.26.748v-3.006h-1.26v-2.527Z" transform="translate(1059.118 700.763) rotate(180)" fill="#ffe7c2" stroke="#707070" stroke-linejoin="round" stroke-width="1"/>
    </g>
    <g id="plant_2" data-name="plant 2" transform="translate(996.647 715.777)" clip-path="url(#clip-path-4)">
      <g id="plant-2" data-name="plant" clip-path="url(#clip-path-5)">
        <path id="Path_80" data-name="Path 80" d="M29.652,23.753s-.973-5.041.811-8.8,4.378-4.826,6.323-6.246,4.254-.841,1.459.568-4.723,2.554-6.485,6.175-.563,8.306-.563,8.306Z" transform="translate(-20.488 -1.519)" fill="#90a48a" stroke="#707070" stroke-linejoin="round" stroke-width="1"/>
        <path id="Path_81" data-name="Path 81" d="M35.45,15.643s3.651,1.9,5.986.873,3.354-5,3.354-5-4.262-.4-6.6.636A4.986,4.986,0,0,0,35.45,15.643Z" transform="matrix(0.966, 0.259, -0.259, 0.966, -18.463, -11.801)" fill="#81af86" stroke="#707070" stroke-linejoin="round" stroke-width="1"/>
        <path id="Path_82" data-name="Path 82" d="M32.818,12.026s.153-2.962-1.621-4.365-5.475-1.247-5.475-1.247A7.963,7.963,0,0,0,28.079,10.4,10.141,10.141,0,0,0,32.818,12.026Z" transform="translate(-15.488 -5.899)" fill="#81af86" stroke="#707070" stroke-linejoin="round" stroke-width="1"/>
        <path id="Path_83" data-name="Path 83" d="M1129.124,704.639c-.885-.374-3.242-2.619-5.736-2.619s-4.24,2.619-4.24,2.619a28.835,28.835,0,0,0,5.861.873A9.382,9.382,0,0,0,1129.124,704.639Z" transform="translate(-1118.647 -691.777)" fill="#90a48a" stroke="#707070" stroke-linejoin="round" stroke-width="1"/>
        <path id="Path_84" data-name="Path 84" d="M1119.147,704.639c.885-.374,3.242-2.619,5.736-2.619s4.24,2.619,4.24,2.619a28.835,28.835,0,0,1-5.861.873A9.382,9.382,0,0,1,1119.147,704.639Z" transform="translate(-1100.647 -697.777)" fill="#90a48a" stroke="#707070" stroke-linejoin="round" stroke-width="1"/>
      </g>
      <g id="plant_pot-2" data-name="plant pot" transform="translate(0.066 21.336)" clip-path="url(#clip-path-6)">
        <path id="Path_62-2" data-name="Path 62" d="M1017.714,711.512h20.21v6.147h-20.21Z" transform="translate(-1017.214 -711.012)" fill="#ae957a" stroke="#707070" stroke-linejoin="round" stroke-width="1"/>
        <path id="Path_63-2" data-name="Path 63" d="M1020.6,719.847l3.774,13.071h7.264l3.97-13.071Z" transform="translate(-1017.214 -713.199)" fill="#ae957a" stroke="#707070" stroke-linejoin="round" stroke-width="1"/>
      </g>
    </g>
  </g>
</svg>
