<svg xmlns="http://www.w3.org/2000/svg" xmlns:xlink="http://www.w3.org/1999/xlink" width="160" height="120" viewBox="0 0 160 120">
  <defs>
    <clipPath id="clip-path">
      <rect width="77.889" height="53.187" fill="none"/>
    </clipPath>
  </defs>
  <g id="char-solving-puzzle" transform="translate(-524.122 1617.101) rotate(-90)">
    <rect id="image-5" width="160" height="120" transform="translate(1617.101 524.122) rotate(90)" fill="#b7afaf"/>
    <rect id="hairback" width="50.75" height="34.961" transform="translate(1532.724 621.613)" fill="#555"/>
    <path id="neck" d="M4918.333,1696.812l-1.442,7.669,7.608,4.313,4.355-6.71v-5.272Z" transform="translate(-3363.99 -1065.111)" fill="#e5decf" stroke="#707070" stroke-width="1"/>
    <g id="Path_42" data-name="Path 42" transform="translate(1532.724 581.013)" fill="#e5decf">
      <path d="M 28.25765609741211 53.63311767578125 L 20.29991722106934 53.63311767578125 C 17.6267261505127 53.63311767578125 15.03375720977783 53.10967636108398 12.59304714202881 52.07734680175781 C 10.23534679412842 51.08011627197266 8.117807388305664 49.65240859985352 6.299256801605225 47.83385848999023 C 4.480707168579102 46.01529693603516 3.052987098693848 43.89776611328125 2.055767059326172 41.54006576538086 C 1.023437023162842 39.09935760498047 0.4999969899654388 36.50638580322266 0.4999969899654388 33.83319854736328 L 0.4999969899654388 20.29991722106934 C 0.4999969899654388 17.6267261505127 1.023437023162842 15.03375720977783 2.055767059326172 12.59304714202881 C 3.052987098693848 10.23534679412842 4.480707168579102 8.117816925048828 6.299256801605225 6.299256801605225 C 8.117807388305664 4.480707168579102 10.23534679412842 3.052996873855591 12.59304714202881 2.055766820907593 C 15.03375720977783 1.023436903953552 17.6267261505127 0.4999969303607941 20.29991722106934 0.4999969303607941 L 30.44987678527832 0.4999969303607941 C 33.12306594848633 0.4999969303607941 35.71603775024414 1.023436903953552 38.15674591064453 2.055766820907593 C 40.51444625854492 3.052996873855591 42.63197708129883 4.480707168579102 44.45053863525391 6.299256801605225 C 46.26908874511719 8.117816925048828 47.69679641723633 10.23534679412842 48.69402694702148 12.59304714202881 C 49.72635650634766 15.03375720977783 50.24979782104492 17.6267261505127 50.24979782104492 20.29991722106934 L 50.24979782104492 33.83319854736328 C 50.24979782104492 36.46373748779297 49.61604690551758 39.04609680175781 48.36613845825195 41.50852584838867 C 47.18213653564453 43.84113693237305 45.50447845458984 45.96132659912109 43.37975692749023 47.81021881103516 C 39.12713623046875 51.51074600219727 33.61534881591797 53.63311767578125 28.25765609741211 53.63311767578125 Z" stroke="none"/>
      <path d="M 20.29991722106934 0.9999961853027344 C 17.69400787353516 0.9999961853027344 15.16656875610352 1.510147094726563 12.78782653808594 2.516265869140625 C 10.48971557617188 3.488285064697266 8.425605773925781 4.880016326904297 6.652805328369141 6.652805328369141 C 4.880016326904297 8.425605773925781 3.488288879394531 10.48971557617188 2.516265869140625 12.78782653808594 C 1.510147094726563 15.16656875610352 0.9999961853027344 17.69400787353516 0.9999961853027344 20.2999153137207 L 0.9999961853027344 33.83319854736328 C 0.9999961853027344 36.43910598754883 1.510147094726563 38.96653747558594 2.516265869140625 41.34528732299805 C 3.488288879394531 43.64338684082031 4.880016326904297 45.7075080871582 6.652805328369141 47.48029708862305 C 8.425605773925781 49.25309753417969 10.48971557617188 50.64482879638672 12.78782653808594 51.61684799194336 C 15.16656875610352 52.62296676635742 17.69400787353516 53.13311767578125 20.29991722106934 53.13311767578125 L 28.25765609741211 53.13311767578125 C 33.49645614624023 53.13311767578125 38.88861846923828 51.05551528930664 43.05153656005859 47.43302536010742 C 45.12746810913086 45.6265983581543 46.76555633544922 43.55716705322266 47.9202880859375 41.28221893310547 C 49.13425827026367 38.89056777954102 49.74979782104492 36.38435745239258 49.74979782104492 33.83319854736328 L 49.74979782104492 20.2999153137207 C 49.74979782104492 17.69400787353516 49.23964691162109 15.16656875610352 48.23352813720703 12.78782653808594 C 47.26150512695313 10.48971557617188 45.86977767944336 8.425605773925781 44.09697723388672 6.652805328369141 C 42.32418823242188 4.880016326904297 40.26006698608398 3.488285064697266 37.96196746826172 2.516265869140625 C 35.58321762084961 1.510147094726563 33.0557861328125 0.9999961853027344 30.44987678527832 0.9999961853027344 L 20.29991722106934 0.9999961853027344 M 20.29991722106934 -3.814697265625e-06 L 30.44987678527832 -3.814697265625e-06 C 41.66120910644531 -3.814697265625e-06 50.74979782104492 9.088577270507813 50.74979782104492 20.2999153137207 L 50.74979782104492 33.83319854736328 C 50.74979782104492 45.04452514648438 39.46898651123047 54.13311767578125 28.25765609741211 54.13311767578125 L 20.29991722106934 54.13311767578125 C 9.088577270507813 54.13311767578125 -3.814697265625e-06 45.04452514648438 -3.814697265625e-06 33.83319854736328 L -3.814697265625e-06 20.2999153137207 C -3.814697265625e-06 9.088577270507813 9.088577270507813 -3.814697265625e-06 20.29991722106934 -3.814697265625e-06 Z" stroke="none" fill="#707070"/>
    </g>
    <path id="Subtraction_14" data-name="Subtraction 14" d="M15.3,82.176H0v-.061C.034,80.16.365,62.45,1.449,42.439a98.862,98.862,0,0,1,1.939-15.6,47,47,0,0,1,4.9-13.46,26.056,26.056,0,0,1,9.1-9.537A29.1,29.1,0,0,1,31.921.008C32.164,0,32.411,0,32.652,0,40.088,0,46.263,2.53,51,7.519c3.793,3.992,6.585,9.442,8.3,16.2a63.92,63.92,0,0,1,1.724,18.723c-.939,18.32-.95,39.522-.95,39.734H50.537l2.21-54.167H38.85l-1.318-3.43-1.318,3.43H32.69l-1.742-7.456-1.477,7.456h-14.1l0,.009a182.3,182.3,0,0,1,0,23.9C14.689,63.1,15.095,76.8,15.3,82.175Z" transform="translate(1527.446 573.872)" fill="#555" stroke="#707070" stroke-width="1"/>
    <path id="top" d="M4917.831,1698.994s-5.421-.357-7.228,3.709-.951,8.321,0,12.553,3.8,4.375,3.8,4.375h24.667a71.149,71.149,0,0,1,0-10.361c.1-1.2,3.887-1.367,4.229-3.511.329-2.06-2.831-3.043-3.351-4.2-2.32-5.159-10.157-2.568-10.157-2.568s-2.316,2.568-5.307,2.568S4917.831,1698.994,4917.831,1698.994Z" transform="translate(-3364.929 -1061.682)" fill="#959595" stroke="#707070" stroke-width="1"/>
    <path id="brow" d="M8845.957,727.364a6.026,6.026,0,0,1,3.629-2.078,11.07,11.07,0,0,1,4.942,1.212" transform="translate(-7297.492 -119.142)" fill="none" stroke="#707070" stroke-width="1"/>
    <path id="brow-2" data-name="brow" d="M8846.167,726.684l3.392-1.218.987-.372,1.763-.408,2.438-.831" transform="translate(-7279.422 -114.811)" fill="none" stroke="#707070" stroke-width="1"/>
    <path id="table" d="M0,0H119.6V35.42H0Z" transform="translate(1497.334 648.68)" fill="#d2d2d2"/>
    <path id="hand" d="M4915.564,1717.856c-4.185-3.177.761-6.981.761-6.981s3.9-1.284,5.706,0,1.5,3.39,1.5,5.135a1.687,1.687,0,0,1-1.5,1.846Z" transform="translate(-3338.436 -1073.687)" fill="#e5decf" stroke="#707070" stroke-width="1"/>
    <g id="eye" transform="translate(1569.941 610.336)" fill="#707070" stroke="#707070" stroke-width="1">
      <ellipse cx="2.256" cy="2.819" rx="2.256" ry="2.819" stroke="none"/>
      <ellipse cx="2.256" cy="2.819" rx="1.756" ry="2.319" fill="none"/>
    </g>
    <g id="eye-2" data-name="eye" transform="translate(1550.769 610.336)" fill="#707070" stroke="#707070" stroke-width="1">
      <ellipse cx="2.256" cy="2.819" rx="2.256" ry="2.819" stroke="none"/>
      <ellipse cx="2.256" cy="2.819" rx="1.756" ry="2.319" fill="none"/>
    </g>
    <path id="lapel" d="M5541.608,625.346l5.2,1.332h1.989l-6.65,5.243-2.247,8.239h-3.662l.961-9.571-.961-3.912,2.674-.645Z" transform="translate(-3972.796 7.935)" fill="#acaaa0" stroke="#707070" stroke-linejoin="bevel" stroke-width="1"/>
    <path id="mouth" d="M8854.747,723.855l-2.628.9-1.251.426-.442.151s-.7.12-.867.137a6.887,6.887,0,0,0-3.392,1.218,7.5,7.5,0,0,0,4.259,0A13.858,13.858,0,0,0,8854.747,723.855Z" transform="translate(-7288.444 -97.894)" fill="#b4a8a8" stroke="#707070" stroke-linejoin="round" stroke-width="1"/>
    <g id="magnifier" transform="translate(1562.209 600.186)">
      <g id="Ellipse_36" data-name="Ellipse 36" fill="#fff" stroke="#707070" stroke-width="1" opacity="0.8">
        <circle cx="13.452" cy="13.452" r="13.452" stroke="none"/>
        <circle cx="13.452" cy="13.452" r="12.952" fill="none"/>
      </g>
      <g id="Ellipse_33" data-name="Ellipse 33" transform="translate(2.256 2.256)" fill="#e5decf" stroke="#707070" stroke-width="1" opacity="0.8">
        <circle cx="11.196" cy="11.196" r="11.196" stroke="none"/>
        <circle cx="11.196" cy="11.196" r="10.696" fill="none"/>
      </g>
      <path id="eye-3" data-name="eye" d="M8848.808,727.533l1.718-1.21,1.514-.57,2.7-.625,3.736-1.274" transform="translate(-8845.488 -716.521)" fill="none" stroke="#707070" stroke-width="1"/>
      <g id="Ellipse_34" data-name="Ellipse 34" transform="translate(4.737 9.312)" fill="#707070" stroke="#707070" stroke-width="1">
        <ellipse cx="3.456" cy="4.32" rx="3.456" ry="4.32" stroke="none"/>
        <ellipse cx="3.456" cy="4.32" rx="2.956" ry="3.82" fill="none"/>
      </g>
      <g id="Subtraction_15" data-name="Subtraction 15" transform="translate(15.428 2.429)" fill="#555" opacity="0.8">
        <path d="M 0.5000032782554626 21.43144798278809 L 0.5000032782554626 0.6138185858726501 C 5.297876358032227 1.746296167373657 8.720423698425293 6.031606674194336 8.720423698425293 11.02263832092285 C 8.720423698425293 16.01342964172363 5.297988414764404 20.29897117614746 0.5000032782554626 21.43144798278809 Z" stroke="none"/>
        <path d="M 1.000003337860107 20.7793083190918 C 5.247855186462402 19.49262809753418 8.220423698425293 15.56390857696533 8.220423698425293 11.02263832092285 C 8.220423698425293 6.48087215423584 5.248153686523438 2.552343368530273 1.000003337860107 1.265940308570862 L 1.000003337860107 20.7793083190918 M 3.279724069216172e-06 22.04527854919434 L 3.279724069216172e-06 22.04370880126953 L 3.279724069216172e-06 -1.67907717241178e-06 C 5.343153476715088 0.9517583250999451 9.220423698425293 5.587988376617432 9.220423698425293 11.02263832092285 C 9.220423698425293 16.45698738098145 5.343153476715088 21.09256744384766 0.001653279759921134 22.04499816894531 L 3.279724069216172e-06 22.04527854919434 Z" stroke="none" fill="#707070"/>
      </g>
      <g id="Path_61" data-name="Path 61" transform="translate(2.256 2.256)" fill="#fff" opacity="0.2">
        <path d="M 11.19623279571533 21.89246368408203 C 8.339162826538086 21.89246368408203 5.653102874755859 20.77986335754395 3.632852792739868 18.75961303710938 C 1.612602829933167 16.7393627166748 0.5000028014183044 14.05330276489258 0.5000028014183044 11.19623279571533 C 0.5000028014183044 8.339162826538086 1.612602829933167 5.653102874755859 3.632852792739868 3.632852792739868 C 5.653102874755859 1.612602829933167 8.339162826538086 0.5000028014183044 11.19623279571533 0.5000028014183044 C 14.05330276489258 0.5000028014183044 16.7393627166748 1.612602829933167 18.75961303710938 3.632852792739868 C 20.77986335754395 5.653102874755859 21.89246368408203 8.339162826538086 21.89246368408203 11.19623279571533 C 21.89246368408203 14.05330276489258 20.77986335754395 16.7393627166748 18.75961303710938 18.75961303710938 C 16.7393627166748 20.77986335754395 14.05330276489258 21.89246368408203 11.19623279571533 21.89246368408203 Z" stroke="none"/>
        <path d="M 11.19623279571533 1.000001907348633 C 5.574012756347656 1.000001907348633 1.000001907348633 5.574012756347656 1.000001907348633 11.19623279571533 C 1.000001907348633 16.81845283508301 5.574012756347656 21.39246368408203 11.19623279571533 21.39246368408203 C 16.81845283508301 21.39246368408203 21.39246368408203 16.81845283508301 21.39246368408203 11.19623279571533 C 21.39246368408203 5.574012756347656 16.81845283508301 1.000001907348633 11.19623279571533 1.000001907348633 M 11.19623279571533 1.9073486328125e-06 C 17.37974166870117 1.9073486328125e-06 22.39246368408203 5.012722015380859 22.39246368408203 11.19623279571533 C 22.39246368408203 17.37974166870117 17.37974166870117 22.39246368408203 11.19623279571533 22.39246368408203 C 5.012722015380859 22.39246368408203 1.9073486328125e-06 17.37974166870117 1.9073486328125e-06 11.19623279571533 C 1.9073486328125e-06 5.012722015380859 5.012722015380859 1.9073486328125e-06 11.19623279571533 1.9073486328125e-06 Z" stroke="none" fill="#707070"/>
      </g>
      <g id="Rectangle_53" data-name="Rectangle 53" transform="matrix(0.985, -0.174, 0.174, 0.985, 14.779, 26.408)" fill="#fff" stroke="#707070" stroke-width="1">
        <rect width="3.383" height="12.406" stroke="none"/>
        <rect x="0.5" y="0.5" width="2.383" height="11.406" fill="none"/>
      </g>
    </g>
    <path id="lapel-2" data-name="lapel" d="M5533.481,640.094l-2.614-8.867,1.914-5.659-6.908.749h-4.253l3.013,3.388.491,5.018,3.071,5.742Z" transform="translate(-3973.536 7.964)" fill="#acaaa0" stroke="#707070" stroke-linejoin="bevel" stroke-width="1"/>
    <path id="hand-2" data-name="hand" d="M4915.564,1717.856c-4.185-3.177.761-6.981.761-6.981s3.9-1.284,5.706,0,1.5,3.39,1.5,5.135a1.687,1.687,0,0,1-1.5,1.846Z" transform="translate(-3365.502 -1068.048)" fill="#e5decf" stroke="#707070" stroke-width="1"/>
    <g id="hat" transform="translate(1521.365 563.242)" clip-path="url(#clip-path)">
      <path id="hat-cap" d="M5504.144,599.88s-.6-4.717,1.645-12.079,4.206-17.224,17.736-21.228,28.36,6.052,28.36,6.052l-28.36,16.09-19.381,13.531Z" transform="translate(-5497.143 -562.937)" fill="#959595" stroke="#707070" stroke-width="1"/>
      <path id="hat-brim" d="M5507.073,605.144c2.833-4.663,9.123-9.056,9.123-9.056s9.436-6.171,19.4-7.68,20.46,1.646,20.46,1.646l6.052,1.444s10.422-.9,12.231-4.736,1.116-7.817-5.832-11.519-11.442-5.714-21.96-3.291-9.357,4.5-21.009,12.8-20.429,12.9-25.6,20.393,4.918,9.594,4.918,9.594A16.362,16.362,0,0,1,5507.073,605.144Z" transform="translate(-5497.859 -562.264)" fill="#acaaa0" stroke="#707070" stroke-width="1"/>
      <path id="hat_lines" data-name="hat lines" d="M5513.307,591.774a23.454,23.454,0,0,1,0-11.154c1.5-6.08,5.992-13.165,5.992-13.165s6.326.984,10.108,2.953a17.273,17.273,0,0,1,6.048,5.767" transform="translate(-5496.049 -562.704)" fill="none" stroke="#707070" stroke-width="1"/>
      <path id="hat-top" d="M5519.1,567.89c-.891-.183-5.3,1.463-4.914,0s3.493-3.84,3.493-3.84Z" transform="translate(-5495.854 -563.139)" fill="#acaaa0" stroke="#707070" stroke-linejoin="bevel" stroke-width="1"/>
    </g>
  </g>
</svg>
