<svg xmlns="http://www.w3.org/2000/svg" xmlns:xlink="http://www.w3.org/1999/xlink" width="167" height="167" viewBox="0 0 167 167">
  <defs>
    <clipPath id="clip-path">
      <rect width="14.956" height="7.568" fill="none"/>
    </clipPath>
    <clipPath id="clip-path-2">
      <rect width="78" height="31" fill="none"/>
    </clipPath>
  </defs>
  <g id="circularwindow-night" transform="translate(-876 -387)">
    <path id="Subtraction_2" data-name="Subtraction 2" d="M-3904,152.919h0a74.343,74.343,0,0,1-26.679-6.243,74.389,74.389,0,0,1-21.986-14.846A73.617,73.617,0,0,1-3974.833,84H-3904Zm8-.053V84h69.833a73.009,73.009,0,0,1-6.705,26.084A73.923,73.923,0,0,1-3848,131.5a74.417,74.417,0,0,1-21.669,14.883A74.334,74.334,0,0,1-3896,152.867ZM-3826.06,76H-3896V5.133a74.51,74.51,0,0,1,48.667,22.032A73.552,73.552,0,0,1-3826.06,76ZM-3904,76h-70.94a73.52,73.52,0,0,1,21.6-49.168A74.477,74.477,0,0,1-3904,5.081V76Z" transform="translate(4860 392)" fill="#f3f8bc"/>
    <g id="me-night" transform="translate(-1)">
      <rect id="hairback" width="45" height="31" transform="translate(930 480)" fill="#555"/>
      <path id="neck" d="M4918.17,1696.812l-1.278,6.8,6.746,3.825,3.862-5.95v-4.675Z" transform="translate(-3969 -1207.867)" fill="#e5decf" stroke="#707070" stroke-width="1"/>
      <g id="face" transform="translate(53 -264)">
        <g id="Path_42" data-name="Path 42" transform="translate(877 708)" fill="#e5decf">
          <path d="M 25.05615043640137 47.5 L 18 47.5 C 13.32557964324951 47.5 8.930939674377441 45.67967987060547 5.625629901885986 42.37437057495117 C 2.320319890975952 39.06904983520508 0.5 34.67441940307617 0.5 30 L 0.5 18 C 0.5 13.32557964324951 2.320319890975952 8.930939674377441 5.625629901885986 5.625629901885986 C 8.930939674377441 2.320319890975952 13.32557964324951 0.5 18 0.5 L 27 0.5 C 31.67441940307617 0.5 36.06904983520508 2.320319890975952 39.37437057495117 5.625629901885986 C 42.67967987060547 8.930939674377441 44.5 13.32557964324951 44.5 18 L 44.5 30 C 44.5 32.32352066040039 43.94010925292969 34.60467147827148 42.83589172363281 36.78010177612305 C 41.78934860229492 38.84189987182617 40.30625152587891 40.71612930297852 38.42778015136719 42.35073089599609 C 34.66714096069336 45.62316131591797 29.79335975646973 47.5 25.05615043640137 47.5 Z" stroke="none"/>
          <path d="M 18 1 C 13.45914077758789 1 9.190059661865234 2.768310546875 5.979190826416016 5.979190826416016 C 2.768310546875 9.190059661865234 1 13.45914077758789 1 18 L 1 30 C 1 34.54085922241211 2.768310546875 38.80994033813477 5.979190826416016 42.02080917358398 C 9.190059661865234 45.231689453125 13.45914077758789 47 18 47 L 25.05615043640137 47 C 29.67446899414063 47 34.42861175537109 45.16793060302734 38.09955978393555 41.97354125976563 C 39.92924118041992 40.38138961791992 41.37276840209961 38.55792236328125 42.39004135131836 36.55379104614258 C 43.45832824707031 34.44915008544922 44 32.2441291809082 44 30 L 44 18 C 44 13.45914077758789 42.231689453125 9.190059661865234 39.02080917358398 5.979190826416016 C 35.80994033813477 2.768310546875 31.54085922241211 1 27 1 L 18 1 M 18 0 L 27 0 C 36.94112014770508 0 45 8.058879852294922 45 18 L 45 30 C 45 39.94112014770508 34.99728012084961 48 25.05615043640137 48 L 18 48 C 8.058879852294922 48 0 39.94112014770508 0 30 L 0 18 C 0 8.058879852294922 8.058879852294922 0 18 0 Z" stroke="none" fill="#707070"/>
        </g>
        <path id="Subtraction_14" data-name="Subtraction 14" d="M-7947.57,73.479h-13.338v-.055c.018-1.653.2-16.665,1.166-34.387.4-7.36,2.021-17.874,7.487-26.165a27.157,27.157,0,0,1,9.047-8.729A27.521,27.521,0,0,1-7929.875.619c.216,0,.435-.007.648-.007a21.54,21.54,0,0,1,16.271,6.667c3.363,3.539,5.838,8.371,7.356,14.361a56.694,56.694,0,0,1,1.527,16.6c-.833,16.246-.843,35.046-.843,35.234h-8.455l1.961-48.03h-12.325l-1.167-3.041-1.169,3.041h-3.126l-1.542-6.611-1.311,6.611h-12.5c-.013.078-1.444,8.68-2.194,20.876-.609,9.964-.783,22.309-.829,27.154Z" transform="translate(8830.5 701.055)" fill="#555" stroke="#707070" stroke-width="1"/>
        <path id="Path_41" data-name="Path 41" d="M896.84,745.251c-.687.951.914,2.377,2.134,2.747s2.747-1.268,2.747-1.268,1.691-1.479,0-2.536S897.527,744.3,896.84,745.251Z" transform="translate(2 3.492)" fill="#b4a8a8" stroke="#707070" stroke-width="1"/>
        <path id="Path_43" data-name="Path 43" d="M894.5,734.15h-6.912v1.781H894.5Z" transform="translate(3)" fill="#707070"/>
        <path id="Path_44" data-name="Path 44" d="M887.588,734.151h6.91v1.781h-6.91Z" transform="translate(19.986 -0.002)" fill="#707070"/>
      </g>
      <path id="top" d="M4916.892,1698.92s-4.807-.316-6.409,3.289-.843,7.378,0,11.131,3.373,3.879,3.373,3.879h12.295l3.221-18.3H4927.5a7.232,7.232,0,0,1-4.705,2.277C4920.143,1701.2,4916.892,1698.92,4916.892,1698.92Z" transform="translate(-3969 -1205)" fill="#f3c6c6" stroke="#707070" stroke-width="1"/>
      <path id="hand" d="M4915.374,1717c-3.71-2.817.675-6.19.675-6.19s3.461-1.138,5.06,0,1.332,3.006,1.332,4.554a1.5,1.5,0,0,1-1.332,1.637Z" transform="translate(-3969 -1205)" fill="#e5decf" stroke="#707070" stroke-width="1"/>
      <g id="action" transform="translate(941.329 496.552)" clip-path="url(#clip-path)">
        <path id="Path_48" data-name="Path 48" d="M4913.012,1708.066l-2.023-3.665,2.023-1.349,1.518,5.014Z" transform="translate(-4910.329 -1701.552)" fill="#fff" stroke="#707070" stroke-linecap="round" stroke-linejoin="round" stroke-width="1"/>
        <path id="Path_49" data-name="Path 49" d="M4921.108,1706.256l1.012-4.048,2.361.843-3.373,4.554Z" transform="translate(-4910.329 -1701.552)" fill="#fff" stroke="#707070" stroke-linecap="round" stroke-linejoin="round" stroke-width="1"/>
      </g>
      <path id="desk" d="M4877.5,1720.5h126.475l-18.489,21.363-31.532,9.263-28.864,2.964-26.678-9.634-14.117-14.451Z" transform="translate(-3980 -1205)" fill="#7e8f90"/>
      <g id="laptop" transform="translate(933 485)" clip-path="url(#clip-path-2)">
        <g id="Rectangle_37" data-name="Rectangle 37" transform="translate(0 27)" fill="#fff" stroke="#707070" stroke-linecap="round" stroke-linejoin="round" stroke-width="1">
          <rect width="25" height="4" stroke="none"/>
          <rect x="0.5" y="0.5" width="24" height="3" fill="none"/>
        </g>
        <g id="laptop-2" data-name="laptop" transform="translate(25)" fill="#fff" stroke-linecap="round" stroke-linejoin="round">
          <path d="M 47.57418441772461 30.5 L -1.412892937660217 30.5 L 3.425816774368286 0.5 L 52.41289138793945 0.5 L 47.57418441772461 30.5 Z" stroke="none"/>
          <path d="M 3.851631164550781 1 L -0.8257865905761719 30 L 47.14836883544922 30 L 51.82578659057617 1 L 3.851631164550781 1 M 3 0 L 53 0 L 48 31 L -2 31 L 3 0 Z" stroke="none" fill="#707070"/>
        </g>
      </g>
    </g>
    <path id="Subtraction_12" data-name="Subtraction 12" d="M-5886.5,167a82.98,82.98,0,0,1-32.5-6.562,83.5,83.5,0,0,1-14.184-7.7,84.1,84.1,0,0,1-12.358-10.2,84.106,84.106,0,0,1-10.2-12.358,83.555,83.555,0,0,1-7.7-14.184A82.983,82.983,0,0,1-5970,83.5a82.983,82.983,0,0,1,6.562-32.5,83.555,83.555,0,0,1,7.7-14.184,84.106,84.106,0,0,1,10.2-12.358,84.1,84.1,0,0,1,12.358-10.2A83.5,83.5,0,0,1-5919,6.562,82.98,82.98,0,0,1-5886.5,0,82.978,82.978,0,0,1-5854,6.562a83.515,83.515,0,0,1,14.184,7.7,84.057,84.057,0,0,1,12.357,10.2,84.143,84.143,0,0,1,10.2,12.358,83.526,83.526,0,0,1,7.7,14.184A82.975,82.975,0,0,1-5803,83.5a82.975,82.975,0,0,1-6.562,32.5,83.526,83.526,0,0,1-7.7,14.184,84.143,84.143,0,0,1-10.2,12.358,84.057,84.057,0,0,1-12.357,10.2,83.514,83.514,0,0,1-14.184,7.7A82.978,82.978,0,0,1-5886.5,167Zm0-157c-41.08,0-74.5,33.2-74.5,74s33.42,74,74.5,74,74.5-33.2,74.5-74S-5845.42,10-5886.5,10Z" transform="translate(6846 387)" fill="#c1c9ca"/>
    <path id="Union_3" data-name="Union 3" d="M-5894,160V84h-76V76h76V0h8V76h76v8h-76v76Z" transform="translate(6850 392)" fill="#c1c9ca"/>
  </g>
</svg>
