<svg xmlns="http://www.w3.org/2000/svg" xmlns:xlink="http://www.w3.org/1999/xlink" width="167" height="167" viewBox="0 0 167 167">
  <defs>
    <clipPath id="clip-path">
      <rect width="167" height="167" fill="none"/>
    </clipPath>
  </defs>
  <g id="circular_window_-white" data-name="circular window -white" clip-path="url(#clip-path)">
    <path id="Subtraction_2" data-name="Subtraction 2" d="M-3904,152.919h0a74.343,74.343,0,0,1-26.679-6.243,74.389,74.389,0,0,1-21.986-14.846A73.617,73.617,0,0,1-3974.833,84H-3904Zm8-.053V84h69.833a73.009,73.009,0,0,1-6.705,26.084A73.923,73.923,0,0,1-3848,131.5a74.417,74.417,0,0,1-21.669,14.883A74.334,74.334,0,0,1-3896,152.867ZM-3826.06,76H-3896V5.133a74.51,74.51,0,0,1,48.667,22.032A73.552,73.552,0,0,1-3826.06,76ZM-3904,76h-70.94a73.52,73.52,0,0,1,21.6-49.168A74.477,74.477,0,0,1-3904,5.081V76Z" transform="translate(3984 5)" fill="#fff"/>
    <path id="Subtraction_12" data-name="Subtraction 12" d="M-5886.5,167a82.98,82.98,0,0,1-32.5-6.562,83.5,83.5,0,0,1-14.184-7.7,84.1,84.1,0,0,1-12.358-10.2,84.106,84.106,0,0,1-10.2-12.358,83.555,83.555,0,0,1-7.7-14.184A82.983,82.983,0,0,1-5970,83.5a82.983,82.983,0,0,1,6.562-32.5,83.555,83.555,0,0,1,7.7-14.184,84.106,84.106,0,0,1,10.2-12.358,84.1,84.1,0,0,1,12.358-10.2A83.5,83.5,0,0,1-5919,6.562,82.98,82.98,0,0,1-5886.5,0,82.978,82.978,0,0,1-5854,6.562a83.515,83.515,0,0,1,14.184,7.7,84.057,84.057,0,0,1,12.357,10.2,84.143,84.143,0,0,1,10.2,12.358,83.526,83.526,0,0,1,7.7,14.184A82.975,82.975,0,0,1-5803,83.5a82.975,82.975,0,0,1-6.562,32.5,83.526,83.526,0,0,1-7.7,14.184,84.143,84.143,0,0,1-10.2,12.358,84.057,84.057,0,0,1-12.357,10.2,83.514,83.514,0,0,1-14.184,7.7A82.978,82.978,0,0,1-5886.5,167Zm0-157c-41.08,0-74.5,33.2-74.5,74s33.42,74,74.5,74,74.5-33.2,74.5-74S-5845.42,10-5886.5,10Z" transform="translate(5970)" fill="#bbeef3"/>
    <path id="Union_3" data-name="Union 3" d="M-5894,160V84h-76V76h76V0h8V76h76v8h-76v76Z" transform="translate(5974 5)" fill="#bbeef3"/>
  </g>
</svg>
