<svg xmlns="http://www.w3.org/2000/svg" xmlns:xlink="http://www.w3.org/1999/xlink" width="167" height="240" viewBox="0 0 167 240">
  <defs>
    <clipPath id="clip-path">
      <rect width="167" height="240" fill="none"/>
    </clipPath>
    <clipPath id="clip-path-2">
      <rect width="79.107" height="224" fill="none"/>
    </clipPath>
    <linearGradient id="linear-gradient" y1="0.462" x2="1.691" y2="0.456" gradientUnits="objectBoundingBox">
      <stop offset="0" stop-color="#f3d8e7"/>
      <stop offset="0.448" stop-color="#f2d7e6"/>
      <stop offset="1" stop-color="#7a6c74"/>
    </linearGradient>
    <filter id="Ellipse_3" x="77.107" y="128" width="14" height="17" filterUnits="userSpaceOnUse">
      <feOffset dx="-2" dy="1" input="SourceAlpha"/>
      <feGaussianBlur result="blur"/>
      <feFlood flood-color="#9a8e60"/>
      <feComposite operator="in" in2="blur"/>
      <feComposite in="SourceGraphic"/>
    </filter>
    <filter id="Rectangle_14" x="34.553" y="144" width="43" height="17" filterUnits="userSpaceOnUse">
      <feOffset dx="-1" dy="1" input="SourceAlpha"/>
      <feGaussianBlur result="blur-2"/>
      <feFlood flood-color="#9b8f61"/>
      <feComposite operator="in" in2="blur-2"/>
      <feComposite in="SourceGraphic"/>
    </filter>
    <filter id="Path_3" x="33.437" y="52.921" width="46.013" height="60.871" filterUnits="userSpaceOnUse">
      <feOffset dx="-1" dy="1" input="SourceAlpha"/>
      <feGaussianBlur result="blur-3"/>
      <feFlood flood-color="#925f7c"/>
      <feComposite operator="in" in2="blur-3"/>
      <feComposite in="SourceGraphic"/>
    </filter>
  </defs>
  <g id="Door_in" data-name="Door in" clip-path="url(#clip-path)">
    <g id="Rectangle_2" data-name="Rectangle 2" fill="#a59898" stroke="#707070" stroke-width="1">
      <rect width="167" height="240" stroke="none"/>
      <rect x="0.5" y="0.5" width="166" height="239" fill="none"/>
    </g>
    <g id="Rectangle_11" data-name="Rectangle 11" transform="translate(8 8)" fill="#958888" stroke="#707070" stroke-width="1">
      <rect width="152" height="232" stroke="none"/>
      <rect x="0.5" y="0.5" width="151" height="231" fill="none"/>
    </g>
    <g id="Component_3_1" data-name="Component 3 – 1" transform="translate(16 16)" clip-path="url(#clip-path-2)">
      <g id="Rectangle_12" data-name="Rectangle 12" stroke="#707070" stroke-width="1" fill="url(#linear-gradient)">
        <rect width="80.107" height="224" stroke="none"/>
        <rect x="0.5" y="0.5" width="79.107" height="223" fill="none"/>
      </g>
      <g transform="matrix(1, 0, 0, 1, -16, -16)" filter="url(#Ellipse_3)">
        <g id="Ellipse_3-2" data-name="Ellipse 3" transform="translate(79.11 128)" fill="#e7d58b" stroke="#707070" stroke-width="1">
          <ellipse cx="6" cy="8" rx="6" ry="8" stroke="none"/>
          <ellipse cx="6" cy="8" rx="5.5" ry="7.5" fill="none"/>
        </g>
      </g>
      <g transform="matrix(1, 0, 0, 1, -16, -16)" filter="url(#Rectangle_14)">
        <g id="Rectangle_14-2" data-name="Rectangle 14" transform="translate(35.55 144)" fill="#e7d58b" stroke="#707070" stroke-width="1">
          <rect width="42" height="16" stroke="none"/>
          <rect x="0.5" y="0.5" width="41" height="15" fill="none"/>
        </g>
      </g>
      <g transform="matrix(1, 0, 0, 1, -16, -16)" filter="url(#Path_3)">
        <path id="Path_3-2" data-name="Path 3" d="M2834.677,688s-14.191-34.115-21.249-24,21.249,56,21.249,56,17.528-17,21.249-48S2834.677,688,2834.677,688Z" transform="translate(-2777.35 -608)" fill="#ffa5d8" stroke="#707070" stroke-width="1"/>
      </g>
    </g>
    <g id="Rectangle_18" data-name="Rectangle 18" transform="translate(95 16)" fill="#888" stroke="#707070" stroke-width="1">
      <rect width="57" height="224" stroke="none"/>
      <rect x="0.5" y="0.5" width="56" height="223" fill="none"/>
    </g>
  </g>
</svg>
