<svg xmlns="http://www.w3.org/2000/svg" xmlns:xlink="http://www.w3.org/1999/xlink" width="167" height="240" viewBox="0 0 167 240">
  <defs>
    <clipPath id="clip-path">
      <rect width="167" height="240" fill="none"/>
    </clipPath>
  </defs>
  <g id="Door_coloured" data-name="Door coloured" clip-path="url(#clip-path)">
    <g id="Rectangle_2" data-name="Rectangle 2" fill="#a59898" stroke="#707070" stroke-width="1">
      <rect width="167" height="240" stroke="none"/>
      <rect x="0.5" y="0.5" width="166" height="239" fill="none"/>
    </g>
    <g id="Rectangle_11" data-name="Rectangle 11" transform="translate(8 8)" fill="#958888" stroke="#707070" stroke-width="1">
      <rect width="152" height="232" stroke="none"/>
      <rect x="0.5" y="0.5" width="151" height="231" fill="none"/>
    </g>
    <g id="Rectangle_12" data-name="Rectangle 12" transform="translate(16 16)" fill="#f3d8e7" stroke="#707070" stroke-width="1">
      <rect width="136" height="224" stroke="none"/>
      <rect x="0.5" y="0.5" width="135" height="223" fill="none"/>
    </g>
    <g id="Ellipse_3" data-name="Ellipse 3" transform="translate(120 128)" fill="#e7d58b" stroke="#707070" stroke-width="1">
      <circle cx="8" cy="8" r="8" stroke="none"/>
      <circle cx="8" cy="8" r="7.5" fill="none"/>
    </g>
    <g id="Rectangle_14" data-name="Rectangle 14" transform="translate(56 144)" fill="#e7d58b" stroke="#707070" stroke-width="1">
      <rect width="56" height="16" stroke="none"/>
      <rect x="0.5" y="0.5" width="55" height="15" fill="none"/>
    </g>
    <path id="Path_3" data-name="Path 3" d="M2846,688s-21.372-34.115-32-24,32,56,32,56,26.4-17,32-48S2846,688,2846,688Z" transform="translate(-2758.569 -608)" fill="#ffa5d8" stroke="#707070" stroke-width="1"/>
  </g>
</svg>
