<svg xmlns="http://www.w3.org/2000/svg" width="528" height="109" viewBox="0 0 528 109">
  <g id="foundation-white" transform="translate(-712 -893)">
    <rect id="Rectangle_7" data-name="Rectangle 7" width="48" height="88" transform="translate(712 914)" fill="#fff"/>
    <rect id="Rectangle_8" data-name="Rectangle 8" width="48" height="88" transform="translate(1192 914)" fill="#fff"/>
    <rect id="Rectangle_13" data-name="Rectangle 13" width="496" height="16" transform="translate(728 893)" fill="#fff"/>
    <path id="Path_5" data-name="Path 5" d="M2750,904l23.521-8,23.521,8,31.362-8,15.681,8,23.521-8,23.521,8,31.362-8,39.2,8,7.841-8,15.681,8,23.521-8,31.362,8,23.521-8,15.681,8,15.681-8,31.362,8,31.362-8,7.84,8,7.841-8v64H2750Z" transform="translate(-1985.5 21)" fill="#fff"/>
  </g>
</svg>
