<svg xmlns="http://www.w3.org/2000/svg" xmlns:xlink="http://www.w3.org/1999/xlink" width="736" height="151" viewBox="0 0 736 151">
  <defs>
    <clipPath id="clip-path">
      <rect width="736" height="151" fill="none"/>
    </clipPath>
  </defs>
  <g id="Foundation" clip-path="url(#clip-path)">
    <rect id="Ground" width="736" height="151" fill="rgba(168,241,167,0.42)"/>
    <g id="Rectangle_7" data-name="Rectangle 7" transform="translate(104 16)" fill="#8c8c8c" stroke="#707070" stroke-width="1">
      <rect width="48" height="88" stroke="none"/>
      <rect x="0.5" y="0.5" width="47" height="87" fill="none"/>
    </g>
    <g id="Rectangle_8" data-name="Rectangle 8" transform="translate(584 16)" fill="#8c8c8c" stroke="#707070" stroke-width="1">
      <rect width="48" height="88" stroke="none"/>
      <rect x="0.5" y="0.5" width="47" height="87" fill="none"/>
    </g>
    <g id="Rectangle_13" data-name="Rectangle 13" transform="translate(120)" fill="#8c8c8c" stroke="#707070" stroke-width="1">
      <rect width="496" height="16" stroke="none"/>
      <rect x="0.5" y="0.5" width="495" height="15" fill="none"/>
    </g>
    <path id="Path_5" data-name="Path 5" d="M2750,904l24-8,24,8,32-8,16,8,24-8,24,8,32-8,40,8,8-8,16,8,24-8,32,8,24-8,16,8,16-8,32,8,32-8,8,8,8-8v64H2750Z" transform="translate(-2598 -872)" fill="#aca4a4" stroke="#707070" stroke-width="1"/>
  </g>
</svg>
