<svg xmlns="http://www.w3.org/2000/svg" xmlns:xlink="http://www.w3.org/1999/xlink" width="160" height="120" viewBox="0 0 160 120">
  <defs>
    <clipPath id="clip-path">
      <rect width="18.997" height="14.936" fill="none"/>
    </clipPath>
  </defs>
  <g id="image-5" transform="translate(-992 -640)">
    <rect id="image-5-2" data-name="image-5" width="160" height="120" transform="translate(992 640)" fill="#d9d9d6"/>
    <g id="me-eating" transform="translate(-223 6)">
      <rect id="hairback" width="45" height="31" transform="translate(1270 694)" fill="#555"/>
      <path id="neck" d="M4918.17,1696.812l-1.278,6.8,6.746,3.825,3.862-5.95v-4.675Z" transform="translate(-3629 -993.867)" fill="#e5decf" stroke="#707070" stroke-width="1"/>
      <g id="face" transform="translate(393 -50)">
        <g id="Path_42" data-name="Path 42" transform="translate(877 708)" fill="#e5decf">
          <path d="M 25.05615043640137 47.5 L 18 47.5 C 13.32557964324951 47.5 8.930939674377441 45.67967987060547 5.625629901885986 42.37437057495117 C 2.320319890975952 39.06904983520508 0.5 34.67441940307617 0.5 30 L 0.5 18 C 0.5 13.32557964324951 2.320319890975952 8.930939674377441 5.625629901885986 5.625629901885986 C 8.930939674377441 2.320319890975952 13.32557964324951 0.5 18 0.5 L 27 0.5 C 31.67441940307617 0.5 36.06904983520508 2.320319890975952 39.37437057495117 5.625629901885986 C 42.67967987060547 8.930939674377441 44.5 13.32557964324951 44.5 18 L 44.5 30 C 44.5 32.32352066040039 43.94010925292969 34.60467147827148 42.83589172363281 36.78010177612305 C 41.78934860229492 38.84189987182617 40.30625152587891 40.71612930297852 38.42778015136719 42.35073089599609 C 34.66714096069336 45.62316131591797 29.79335975646973 47.5 25.05615043640137 47.5 Z" stroke="none"/>
          <path d="M 18 1 C 13.45914077758789 1 9.190059661865234 2.768310546875 5.979190826416016 5.979190826416016 C 2.768310546875 9.190059661865234 1 13.45914077758789 1 18 L 1 30 C 1 34.54085922241211 2.768310546875 38.80994033813477 5.979190826416016 42.02080917358398 C 9.190059661865234 45.231689453125 13.45914077758789 47 18 47 L 25.05615043640137 47 C 29.67446899414063 47 34.42861175537109 45.16793060302734 38.09955978393555 41.97354125976563 C 39.92924118041992 40.38138961791992 41.37276840209961 38.55792236328125 42.39004135131836 36.55379104614258 C 43.45832824707031 34.44915008544922 44 32.2441291809082 44 30 L 44 18 C 44 13.45914077758789 42.231689453125 9.190059661865234 39.02080917358398 5.979190826416016 C 35.80994033813477 2.768310546875 31.54085922241211 1 27 1 L 18 1 M 18 0 L 27 0 C 36.94112014770508 0 45 8.058879852294922 45 18 L 45 30 C 45 39.94112014770508 34.99728012084961 48 25.05615043640137 48 L 18 48 C 8.058879852294922 48 0 39.94112014770508 0 30 L 0 18 C 0 8.058879852294922 8.058879852294922 0 18 0 Z" stroke="none" fill="#707070"/>
        </g>
        <path id="Subtraction_14" data-name="Subtraction 14" d="M-7944.613,73.477h-13.567v-.054c.03-1.732.324-17.436,1.284-35.179a87.75,87.75,0,0,1,1.72-13.834,41.667,41.667,0,0,1,4.344-11.935,23.1,23.1,0,0,1,8.068-8.456,25.8,25.8,0,0,1,12.889-3.4c.216,0,.434-.007.647-.007a21.54,21.54,0,0,1,16.272,6.667c3.364,3.54,5.839,8.372,7.357,14.362a56.689,56.689,0,0,1,1.528,16.6c-.833,16.244-.843,35.044-.843,35.232h-8.456l1.96-48.03h-12.323l-1.168-3.042-1.168,3.042h-3.126l-1.544-6.611-1.31,6.611h-12.5l0,.008a161.461,161.461,0,0,1,0,21.188c-.608,9.92-.249,22.07-.066,26.833Z" transform="translate(8830.5 701.055)" fill="#555" stroke="#707070" stroke-width="1"/>
        <path id="Path_41" data-name="Path 41" d="M896.84,746.4c-.687,1.694.914,4.235,2.134,4.893s2.747-2.258,2.747-2.258,1.691-2.635,0-4.517S897.527,744.71,896.84,746.4Z" transform="translate(2 0.15)" fill="#b4a8a8" stroke="#707070" stroke-width="1"/>
      </g>
      <path id="top" d="M4916.892,1698.92s-4.807-.316-6.409,3.289-.843,7.378,0,11.131,3.373,3.879,3.373,3.879h21.873a63.014,63.014,0,0,1,0-9.187c.088-1.063,3.446-1.212,3.749-3.114.292-1.827-2.511-2.7-2.971-3.721-2.057-4.575-9.007-2.277-9.007-2.277a7.232,7.232,0,0,1-4.705,2.277C4920.143,1701.2,4916.892,1698.92,4916.892,1698.92Z" transform="translate(-3629 -991)" fill="#f3c6c6" stroke="#707070" stroke-width="1"/>
      <path id="eye" d="M8845.957,727.126a5.341,5.341,0,0,1,3.217-1.842,9.821,9.821,0,0,1,4.384,1.075" transform="translate(-7563 -41)" fill="none" stroke="#707070" stroke-width="1"/>
      <path id="eye-2" data-name="eye" d="M8845.957,727.126a5.341,5.341,0,0,1,3.217-1.842,9.821,9.821,0,0,1,4.384,1.075" transform="translate(-7546 -41)" fill="none" stroke="#707070" stroke-width="1"/>
      <path id="hand" d="M4915.374,1717c-3.71-2.817.675-6.19.675-6.19s3.461-1.138,5.06,0,1.332,3.006,1.332,4.554a1.5,1.5,0,0,1-1.332,1.637Z" transform="translate(-3609 -1003)" fill="#e5decf" stroke="#707070" stroke-width="1"/>
      <path id="crease" d="M5268.009,719.453l-.481-2.94Z" transform="translate(-3980)" fill="none" stroke="#707070" stroke-width="1"/>
      <path id="spoon" d="M5285.94,711.016l-6.346-3.378H5275.4a3.249,3.249,0,0,1-2.5-1.5,3.439,3.439,0,0,1,0-3.274,2.218,2.218,0,0,1,1.906-1.117s2.746-.513,3.342.585a15.921,15.921,0,0,1,1.063,3.13l7.794,4.429Z" transform="translate(-3980)" fill="#7e8f90" stroke="#707070" stroke-linejoin="round" stroke-width="1"/>
      <path id="food_spoon" data-name="food spoon" d="M5272.353,702.69l1.482,2.716,2.946,1,2.067-.413,1.6-1.653V701.1l-2.716-1.3-1.595.945-2.657-.591Z" transform="translate(-3979)" fill="#dcdcdc" stroke="#707070" stroke-linejoin="round" stroke-width="1"/>
      <g id="food" transform="translate(1287.496 712.228)" clip-path="url(#clip-path)">
        <path id="food-2" data-name="food" d="M5269.406,717.983l1.535-2.833,4.246-1.358,2.781,1.358,2.775-.768,2.894,1.949.414,1.652-3.667,3.072-8.031-.472Z" transform="translate(-5267.496 -712.228)" fill="#dcdcdc" stroke="#707070" stroke-linejoin="bevel" stroke-width="1"/>
        <path id="bowl" d="M5268.75,719.578s1.085,4.015,2.132,5.078a3.191,3.191,0,0,0,2.474.886v1.122h6.62v-1.476a4.4,4.4,0,0,0,3.071-.886c1.151-1.078,2.179-5.078,2.179-5.078Z" transform="translate(-5267.496 -712.228)" fill="#a1b59b" stroke="#707070" stroke-linecap="round" stroke-linejoin="round" stroke-width="1"/>
        <path id="bowl_rim" data-name="bowl rim" d="M5271.05,720.641v1.24a60.119,60.119,0,0,0,8.943.472,61.312,61.312,0,0,0,8.946-1.063l-.366-1.358s-5.364.531-9.744.709S5271.05,720.641,5271.05,720.641Z" transform="matrix(0.999, 0.035, -0.035, 0.999, -5242.111, -898.049)" fill="#fff" stroke="#707070" stroke-linejoin="round" stroke-width="1"/>
        <path id="food_topping" data-name="food topping" d="M5274.78,716.271h0l-1.24-3.543-5.433.945,5.433,3.543" transform="translate(-5267.496 -712.228)" fill="#9d8686" stroke="#707070" stroke-linejoin="round" stroke-width="1"/>
      </g>
      <path id="hand-2" data-name="hand" d="M4915.374,1717c-3.71-2.817.675-6.19.675-6.19s.661-1.138,2.259,0,1.687,1.12,1.687,2.667,2.415.758,1.44,2.984S4915.374,1717,4915.374,1717Z" transform="translate(-3629 -991)" fill="#e5decf" stroke="#707070" stroke-width="1"/>
      <g id="table" transform="translate(1230 726)" fill="#fff" stroke="#707070" stroke-width="1">
        <rect width="136" height="4" stroke="none"/>
        <rect x="0.5" y="0.5" width="135" height="3" fill="none"/>
      </g>
    </g>
  </g>
</svg>
