<svg xmlns="http://www.w3.org/2000/svg" width="6" height="7" viewBox="0 0 6 7">
  <g id="left-arrow" transform="translate(0 7) rotate(-90)" fill="#b9eff6" stroke-linecap="round" stroke-linejoin="round">
    <path d="M 5.258960247039795 5.499999523162842 L 1.741040229797363 5.499999523162842 C 1.479820251464844 5.499999523162842 1.350810289382935 5.324489116668701 1.307460188865662 5.249029159545898 C 1.264120221138 5.173569202423096 1.177530288696289 4.973699569702148 1.309150218963623 4.748069286346436 L 3.068110227584839 1.732689380645752 C 3.198710203170776 1.508809328079224 3.413650274276733 1.484639286994934 3.500000238418579 1.484639286994934 C 3.586350202560425 1.484639286994934 3.801290273666382 1.508809328079224 3.931890249252319 1.732699394226074 L 5.690850257873535 4.748059272766113 C 5.822470188140869 4.973699569702148 5.735880374908447 5.173569202423096 5.692540168762207 5.249029159545898 C 5.649190425872803 5.324489116668701 5.520180225372314 5.499999523162842 5.258960247039795 5.499999523162842 Z" stroke="none"/>
    <path d="M 3.49999737739563 1.984634399414063 L 3.500000238418579 1.984629154205322 L 1.741040229797363 4.999999523162842 L 5.258960247039795 4.999999523162842 L 3.500000238418579 1.984639167785645 C 3.499999284744263 1.98463773727417 3.499998331069946 1.984635829925537 3.49999737739563 1.984634399414063 M 3.500000238418579 0.9846343994140625 C 3.83542013168335 0.9846343994140625 4.170840263366699 1.150009155273438 4.36378002166748 1.480759143829346 L 6.122740268707275 4.496129035949707 C 6.511620044708252 5.162789344787598 6.030750274658203 5.999999523162842 5.258960247039795 5.999999523162842 L 1.741040229797363 5.999999523162842 C 0.9692502021789551 5.999999523162842 0.488370418548584 5.162789344787598 0.8772602081298828 4.496129035949707 L 2.636220455169678 1.480759143829346 C 2.829160213470459 1.150009155273438 3.164580345153809 0.9846343994140625 3.500000238418579 0.9846343994140625 Z" stroke="none" fill="#b9eff6"/>
  </g>
</svg>
