<svg xmlns="http://www.w3.org/2000/svg" width="130.851" height="196.554" viewBox="0 0 130.851 196.554">
  <g id="me-door" transform="translate(-1087.965 -136.172) rotate(-30)">
    <path id="hair_back" data-name="hair back" d="M878.439,784,874.9,728.246l52.451-2.867v57Z" transform="translate(495.577 -337.687) rotate(30)" fill="#555" stroke="#707070" stroke-width="1"/>
    <path id="neck" d="M8852.563,753.891a10.8,10.8,0,0,1,3.705,2.85,7.456,7.456,0,0,1,1.168,3.99l7.981-2,2-4.845-4.2-6.164-.072-.106-4.8,3.09Z" transform="translate(-6384.129 -4309.687) rotate(30)" fill="#e5decf" stroke="#707070" stroke-width="1"/>
    <g id="face" transform="translate(886.836 712.445)" fill="#e5decf" stroke="#707070" stroke-width="1">
      <rect width="46.402" height="58.028" rx="21" stroke="none"/>
      <rect x="0.5" y="0.5" width="45.402" height="57.028" rx="20.5" fill="none"/>
    </g>
    <path id="hair" d="M55.346,102.559h0L38.269,93.105l12.125,5.962c.06-.083,6.691-9.249,13.3-20.192a172.3,172.3,0,0,0,9.246-17.15c2.821-6.195,4.308-11.127,4.42-14.66.486-15.31-.627-20.052-.638-20.1h-14.9L60.409,23.36,59,26.968H55.219l-1.866-7.843-1.585,7.843-14.326.818L18.163,67.338,12.545,78.865-.026,71.905,0,71.85c.824-1.7,8.35-17.161,18.688-36.937q.749-1.432,1.466-2.813l0-.006c5.112-9.817,9.149-17.571,14.335-23.036C40.035,3.217,46.527.452,55.541.1,57.167.031,58.5,0,59.727,0c5.446,0,9.411.647,12.857,2.1a25.085,25.085,0,0,1,10.854,9.333,31.926,31.926,0,0,1,4.245,9.537,61.513,61.513,0,0,1,1.876,10.21,80.043,80.043,0,0,1,.38,11.462l-.018.032c-.7,1.225-6.926,12.11-9.857,17.071-5.521,9.35-24.526,42.479-24.717,42.812Z" transform="translate(851.995 701.902)" fill="#555" stroke="#707070" stroke-width="1"/>
    <path id="eye" d="M8845.957,727.515a6.458,6.458,0,0,1,3.889-2.227c2.3-.232,5.3,1.3,5.3,1.3" transform="translate(-7932.666 12.353)" fill="none" stroke="#707070" stroke-linecap="round" stroke-linejoin="round" stroke-width="1"/>
    <path id="eye-2" data-name="eye" d="M8845.957,727.515a6.458,6.458,0,0,1,3.889-2.227c2.3-.232,5.3,1.3,5.3,1.3" transform="translate(-7796.491 -1060.709) rotate(7)" fill="none" stroke="#707070" stroke-linecap="round" stroke-linejoin="round" stroke-width="1"/>
    <path id="mouth" d="M8851.6,743.061s1.324,6.361,5.83,6.361,5.3-9.012,5.3-9.012a9.511,9.511,0,0,1-5.3,2.651A28.823,28.823,0,0,1,8851.6,743.061Z" transform="translate(-7947.891 12.891)" fill="#b4a8a8" stroke="#707070" stroke-linecap="round" stroke-linejoin="round" stroke-width="1"/>
    <path id="shoe" d="M8865.107,867.33s-3.837.713-5.116,2,0,3.135,0,3.135h11.972v-5.13Z" transform="translate(-6384.129 -4309.687) rotate(30)" fill="none" stroke="#707070" stroke-width="1"/>
    <path id="trousers" d="M8858.538,816.026l5.985,51.3h7.154V812.605Z" transform="translate(-6384.129 -4309.687) rotate(30)" fill="#d1d1d1" stroke="#707070" stroke-width="1"/>
    <path id="top" d="M8857.11,760.732s-1.615.071-6.524,4.845c-1.7,1.657-4.866,8.9-5.83,11.445-1.5,3.942-4.165,3.727-4.165,3.727l-12.808-4.911-4.514,8.419s12.778,7.8,20.391,8.331a9.955,9.955,0,0,0,10.059-6.205v31.353l17.956-4.845V753.32l-4.874,1.14-3.962,5.13Z" transform="translate(-6384.129 -4309.687) rotate(30)" fill="#856a6a" stroke="#707070" stroke-width="1"/>
    <path id="hand" d="M8827.459,776.691s-3.113-5.344-5.672-7.126a3.665,3.665,0,0,0-4.561,0s-5.272,3.99-3.705,7.126,9.976,5.415,9.976,5.415Z" transform="translate(-6384.129 -4309.687) rotate(30)" fill="#e5decf" stroke="#707070" stroke-width="1"/>
  </g>
</svg>
