<svg xmlns="http://www.w3.org/2000/svg" width="84.566" height="118" viewBox="0 0 84.566 118">
  <path id="moon" d="M-3921-1087a58.631,58.631,0,0,1-22.965-4.636,58.809,58.809,0,0,1-18.754-12.644,58.809,58.809,0,0,1-12.644-18.754A58.63,58.63,0,0,1-3980-1146a58.631,58.631,0,0,1,4.636-22.966,58.806,58.806,0,0,1,12.644-18.754,58.8,58.8,0,0,1,18.754-12.644A58.632,58.632,0,0,1-3921-1205a59.333,59.333,0,0,1,13.318,1.509,58.673,58.673,0,0,1,12.249,4.3c-21,9.781-34.567,30.658-34.567,53.188s13.568,43.406,34.567,53.188a58.673,58.673,0,0,1-12.249,4.3A59.322,59.322,0,0,1-3921-1087Z" transform="translate(3980 1205)" fill="#d6d6d6"/>
</svg>
