<svg xmlns="http://www.w3.org/2000/svg" xmlns:xlink="http://www.w3.org/1999/xlink" width="1920" height="1080" viewBox="0 0 1920 1080">
  <defs>
    <clipPath id="clip-Web_1920_-_Stage_1_3_door">
      <rect width="1920" height="1080"/>
    </clipPath>
  </defs>
  <g id="Web_1920_-_Stage_1_3_door" data-name="Web 1920 - Stage 1 – 3 door" clip-path="url(#clip-Web_1920_-_Stage_1_3_door)">
    <rect width="1920" height="1080" fill="#fff"/>
    <path id="Path_1" data-name="Path 1" d="M664,384" transform="translate(0 72)" fill="none" stroke="#707070" stroke-width="1"/>
    <g id="Door">
      <g id="Rectangle_2" data-name="Rectangle 2" transform="translate(776 632)" fill="#fff" stroke="#707070" stroke-width="1">
        <rect width="167" height="240" stroke="none"/>
        <rect x="0.5" y="0.5" width="166" height="239" fill="none"/>
      </g>
      <g id="Rectangle_11" data-name="Rectangle 11" transform="translate(784 640)" fill="#fff" stroke="#707070" stroke-width="1">
        <rect width="152" height="232" stroke="none"/>
        <rect x="0.5" y="0.5" width="151" height="231" fill="none"/>
      </g>
      <g id="Rectangle_12" data-name="Rectangle 12" transform="translate(792 648)" fill="#fff" stroke="#707070" stroke-width="1">
        <rect width="136" height="224" stroke="none"/>
        <rect x="0.5" y="0.5" width="135" height="223" fill="none"/>
      </g>
      <g id="Ellipse_3" data-name="Ellipse 3" transform="translate(896 760)" fill="#fff" stroke="#707070" stroke-width="1">
        <circle cx="8" cy="8" r="8" stroke="none"/>
        <circle cx="8" cy="8" r="7.5" fill="none"/>
      </g>
      <g id="Rectangle_14" data-name="Rectangle 14" transform="translate(832 776)" fill="#fff" stroke="#707070" stroke-width="1">
        <rect width="56" height="16" stroke="none"/>
        <rect x="0.5" y="0.5" width="55" height="15" fill="none"/>
      </g>
      <path id="Path_3" data-name="Path 3" d="M2846,688s-21.372-34.115-32-24,32,56,32,56,26.4-17,32-48S2846,688,2846,688Z" transform="translate(-1982.569 24)" fill="none" stroke="#707070" stroke-width="1"/>
    </g>
  </g>
</svg>
