<svg xmlns="http://www.w3.org/2000/svg" xmlns:xlink="http://www.w3.org/1999/xlink" width="1920" height="1080" viewBox="0 0 1920 1080">
  <defs>
    <clipPath id="clip-Web_1920_-_Stage_1_1_housebase_">
      <rect width="1920" height="1080"/>
    </clipPath>
  </defs>
  <g id="Web_1920_-_Stage_1_1_housebase_" data-name="Web 1920 - Stage 1 – 1 housebase " clip-path="url(#clip-Web_1920_-_Stage_1_1_housebase_)">
    <!-- <rect width="1920" height="1080" fill="#fff"/> -->
    <path id="Body" d="M2966,240,2718,488V872h496V488Z" transform="translate(-1990)" fill="rgba(229,229,228,0.93)" stroke="#707070" stroke-width="1"/>
    <path id="Path_1" data-name="Path 1" d="M664,384" transform="translate(0 72)" fill="none" stroke="#707070" stroke-width="1"/>
    <path id="Roof" d="M648,472l48,48L976,240l280,280,48-48L976,144Z" fill="rgba(101,44,44,0.8)" stroke="#707070" stroke-linejoin="bevel" stroke-width="2"/>
    <path id="shadow" d="M2958,248l256,256V488L2966,240Z" transform="translate(-1990)" fill="rgba(52,52,52,0.5)"/>
    <g id="Foundation">
      <g id="Rectangle_7" data-name="Rectangle 7" transform="translate(712 888)" fill="#8c8c8c" stroke="#707070" stroke-width="1">
        <rect width="48" height="88" stroke="none"/>
        <rect x="0.5" y="0.5" width="47" height="87" fill="none"/>
      </g>
      <g id="Rectangle_8" data-name="Rectangle 8" transform="translate(1192 888)" fill="#8c8c8c" stroke="#707070" stroke-width="1">
        <rect width="48" height="88" stroke="none"/>
        <rect x="0.5" y="0.5" width="47" height="87" fill="none"/>
      </g>
      <g id="Rectangle_13" data-name="Rectangle 13" transform="translate(728 872)" fill="#8c8c8c" stroke="#707070" stroke-width="1">
        <rect width="496" height="16" stroke="none"/>
        <rect x="0.5" y="0.5" width="495" height="15" fill="none"/>
      </g>
      <path id="Path_5" data-name="Path 5" d="M2750,904l24-8,24,8,32-8,16,8,24-8,24,8,32-8,40,8,8-8,16,8,24-8,32,8,24-8,16,8,16-8,32,8,32-8,8,8,8-8v64H2750Z" transform="translate(-1990)" fill="#aca4a4" stroke="#707070" stroke-width="1"/>
    </g>
  </g>
</svg>
